<svg xmlns="http://www.w3.org/2000/svg" width="22.182" height="21" viewBox="0 0 22.182 21"><g transform="translate(-216.92 -3504.5)"><path d="M458.791,797.355a10.5,10.5,0,0,1,0-21,10.4,10.4,0,0,1,6.376,2.157.5.5,0,0,1-.608.794,9.406,9.406,0,0,0-5.768-1.951,9.488,9.488,0,1,0,9.257,7.353.5.5,0,1,1,.975-.224,10.593,10.593,0,0,1,.269,2.371,10.5,10.5,0,0,1-10.5,10.5Z" transform="translate(-231.371 2728.145)" fill="#abcc8f"/><path d="M458.08,791.823a.5.5,0,0,1-.308-.106l-5.032-3.935a.5.5,0,1,1,.616-.788l4.676,3.656,11.58-12.124a.5.5,0,0,1,.723.691l-11.893,12.452A.5.5,0,0,1,458.08,791.823Z" transform="translate(-231.371 2728.145)" fill="#abcc8f"/></g></svg>