<svg xmlns="http://www.w3.org/2000/svg" width="81.566" height="30.298" viewBox="0 0 81.566 30.298">
  <g id="flavor-orev" transform="translate(-235.434 -4802)" opacity="0.299">
    <g id="グループ_272" data-name="グループ 272" transform="translate(4458.5 4615.703) rotate(90)" style="mix-blend-mode: multiply;isolation: isolate">
      <path id="線_11" data-name="線 11" d="M0,80.5A.5.5,0,0,1-.5,80V0A.5.5,0,0,1,0-.5.5.5,0,0,1,.5,0V80A.5.5,0,0,1,0,80.5Z" transform="translate(206.5 4142.5)" fill="#3e3a39"/>
      <path id="パス_363" data-name="パス 363" d="M2726.7,4247.045l-.236-.123-9.992-5.218a.5.5,0,0,1,.463-.887l9.756,5.095,9.369-5.091a.5.5,0,1,1,.478.879Z" transform="translate(-2520.208 -23.979)" fill="#3e3a39"/>
    </g>
    <text id="PREV" transform="translate(299 4814)" fill="#3e3a39" font-size="12" font-family="Lato-Regular, Lato" letter-spacing="0.12em"><tspan x="-17.049" y="0">PREV</tspan></text>
  </g>
</svg>
