<svg xmlns="http://www.w3.org/2000/svg" width="24.185" height="24.18" viewBox="0 0 24.185 24.18">
  <path id="Icon-instagram" d="M12.09,8.128a6.2,6.2,0,1,0,6.2,6.2A6.19,6.19,0,0,0,12.09,8.128Zm0,10.23a4.03,4.03,0,1,1,4.03-4.03A4.038,4.038,0,0,1,12.09,18.358Zm7.9-10.483a1.446,1.446,0,1,1-1.446-1.446A1.443,1.443,0,0,1,19.989,7.875ZM24.1,9.342a7.156,7.156,0,0,0-1.953-5.066,7.2,7.2,0,0,0-5.066-1.953c-2-.113-7.98-.113-9.976,0A7.193,7.193,0,0,0,2.033,4.27,7.179,7.179,0,0,0,.08,9.337c-.113,2-.113,7.98,0,9.976a7.156,7.156,0,0,0,1.953,5.066A7.212,7.212,0,0,0,7.1,26.333c2,.113,7.98.113,9.976,0a7.156,7.156,0,0,0,5.066-1.953A7.2,7.2,0,0,0,24.1,19.313c.113-2,.113-7.975,0-9.971ZM21.516,21.455a4.08,4.08,0,0,1-2.3,2.3c-1.592.631-5.369.486-7.127.486s-5.541.14-7.127-.486a4.08,4.08,0,0,1-2.3-2.3c-.631-1.592-.486-5.369-.486-7.127s-.14-5.541.486-7.127a4.08,4.08,0,0,1,2.3-2.3c1.592-.631,5.369-.486,7.127-.486s5.541-.14,7.127.486a4.08,4.08,0,0,1,2.3,2.3c.631,1.592.486,5.369.486,7.127S22.147,19.869,21.516,21.455Z" transform="translate(0.005 -2.238)" fill="#3e3a39"/>
</svg>
