<svg xmlns="http://www.w3.org/2000/svg" width="198" height="54.896" viewBox="0 0 198 54.896"><g transform="translate(-64 -178)"><g transform="translate(-2599 324)"><path d="M8.315,4.745A.3.3,0,0,0,8.56,4.5h5.388a.856.856,0,0,1,.65.283.833.833,0,0,1,.29.566.107.107,0,0,0,0,.053,5.839,5.839,0,0,0-.39,1.674.848.848,0,0,0-.061.352.267.267,0,0,0-.313.229c-.038.374-.1,1.292-.1,2.094h0a1.292,1.292,0,0,0-.932-.076V7.695c-.344-.4-.848-.573-1.116-1.131a.7.7,0,0,1,0-.229H10.539a12.289,12.289,0,0,0-1.414.7.122.122,0,0,1-.053,0,.5.5,0,0,1-.229.153l-.168.13v.588a.344.344,0,0,0-.183.245c0,.374,0,.764,0,1.108a.26.26,0,0,0-.168,0h0c-.214.16-.191.359-.038.459.076.214.145.436.206.673v1.75c0,.214-.3,1.528.267,1.826v.925a.252.252,0,0,1,.138.069.581.581,0,0,1,.122.428h.069a.627.627,0,0,1-.329.986v2.163a5.755,5.755,0,0,0,1.276.321.627.627,0,0,1,.466.512h1.345a.818.818,0,0,1,.925.917.81.81,0,0,1-.925.909H10.753a.454.454,0,0,0-.168-.092,14.093,14.093,0,0,0-2.98-.092c-.107.046-.16.092-.183.153-1.261-.038-2.484-.138-3.729-.153a.344.344,0,0,0-.283.153.77.77,0,0,1-.642-.879.825.825,0,0,1,.925-.917H5.5a1.6,1.6,0,0,1,.657-.833,2.9,2.9,0,0,1,.474-.16c.069.374.527.359.566-.053-.038-2.912-.26-5.785-.359-8.72V7.076l-.122-.084h-.16a.642.642,0,0,1-.481-.336A1.192,1.192,0,0,1,5.7,6.312H4.387l-.3.321c-1.2.145-1.528.619-1.528,1.421v.092a.26.26,0,0,0-.29.069,3.294,3.294,0,0,0-.3,1.016,1.574,1.574,0,0,0-.29,1,3.493,3.493,0,0,0-.145.428H1.452A.743.743,0,0,0,1,10.7l-.084-.115A9.568,9.568,0,0,0,.65,8.062V8.023h0a.061.061,0,0,0,0-.046V5.1c.069.382.512.367.566-.038V4.546a.764.764,0,0,1,.3-.053H4.089a.527.527,0,0,1,.306-.413.359.359,0,0,0,.122.229C5.067,4.867,7.536,4.745,8.315,4.745ZM1.177,11.294h0a.65.65,0,0,0,.061.092v.046Zm8.628,6.175c.191.382.6.436.657.665a.267.267,0,0,0,.1.13.466.466,0,0,1-.711.069.5.5,0,0,1-.046-.864Zm.818.061a.932.932,0,0,1-.206-.153l.16.092a.061.061,0,0,0,.053.061Zm2.423-7.092v-.076a3.485,3.485,0,0,0,.65-.092.413.413,0,0,1,.138.16c0,.1-.053.176-.061.3a.856.856,0,0,0-.481-.145.4.4,0,0,0-.237-.138Zm1.567.932Z" transform="translate(2663.35 -147.712)" fill="#3e3a39"/><path d="M37.858,19.83A8.033,8.033,0,0,0,39,19.884h.52c.329-.046.764-.115.932-.459a.764.764,0,0,0,0-.229,2.981,2.981,0,0,1,1.467-.673h.115a.543.543,0,0,1,.367-.481V16.154a.924.924,0,1,1,1.842,0V20.3a.925.925,0,0,1-.917.909H34c-.145-.764-1.039-.1-1.437,0a.2.2,0,0,1-.084,0H30.835a.81.81,0,0,1-.917-.909.825.825,0,0,1,.917-.917h1.055a2.293,2.293,0,0,1,.886-.971v-1.33c.153.1.367,0,.413-.29,0-1.972,0-3.928-.076-5.923a6.259,6.259,0,0,0-.329-2.04V7.06a.543.543,0,0,1-.6-.5V6.6c0,.046,0-.038-.076-.145H30.942a.825.825,0,0,1-.963-.925.818.818,0,0,1,.925-.917h2.484a.359.359,0,0,0,.222.13h0A10.08,10.08,0,0,0,35.9,4.561c.275-.053.5-.222.81-.267h.145a.764.764,0,0,1,.237.321h2.591a.6.6,0,0,1,.993-.459.764.764,0,0,1,.115.459H43.33a.932.932,0,0,1,.917.917V9.353a.924.924,0,1,1-1.842,0V7.694l-.069-.115a1.177,1.177,0,0,0-.52-.627.359.359,0,0,1-.2-.053.665.665,0,0,1-.39-.145.65.65,0,0,1-.237-.313H39.845l-.168-.061a1.444,1.444,0,0,0-.688-.436,2.56,2.56,0,0,0-.688,0c-.9-.206-1.719-.275-2.071.084a.313.313,0,0,0,0,.313v.1h-.764a.5.5,0,0,1-.145.145l-.153.374A5.555,5.555,0,0,0,34.939,8.1a12.655,12.655,0,0,0,.069,2.453,1.33,1.33,0,0,1,.627.611v.115h1.4a2.95,2.95,0,0,1,1.6-1.635.948.948,0,0,1,1.8.405v4.2a.921.921,0,0,1-1.842,0v-.428a.6.6,0,0,1-.581-.382,3.241,3.241,0,0,0-.206-.336H35.137a.4.4,0,0,1,0,.115.581.581,0,0,1-.367.573,2.582,2.582,0,0,0,0,.283.665.665,0,0,1-.145.237v1.307a.841.841,0,0,1,.359-.053,3.722,3.722,0,0,0,.153,2.484.825.825,0,0,1-.153.367c.283.321.688.7.9.971h.39a.315.315,0,0,0,.283.344A12.874,12.874,0,0,1,37.858,19.83ZM34.61,16.995h.046c0-.046,0,0-.046-.061Zm.764-.436a.222.222,0,0,0,.237,0,.657.657,0,0,1-.206.42,3.417,3.417,0,0,1-.031-.382Zm.084-.55h-.046a.16.16,0,0,1,0-.107Zm3.126,1.635.046.084a.214.214,0,0,0,.107.069.283.283,0,0,0,.107,0h.061a1.238,1.238,0,0,0,.336.65.459.459,0,0,1-.512-.1.481.481,0,0,1-.153-.665Z" transform="translate(2656.451 -147.696)" fill="#3e3a39"/><path d="M62.77,17.66a1.689,1.689,0,0,0-.283.68c.046.214.183.329.344.283a.474.474,0,0,0,.275.374.3.3,0,0,0,.39-.1c.046-.038,0-.092.076-.13a.665.665,0,0,1,.206.527.681.681,0,0,1-.038.153l-.046.145h1.223a.818.818,0,0,1,.909.917.8.8,0,0,1-.909.909H63.48a.39.39,0,0,0-.214-.183,20.3,20.3,0,0,0-2.048.069,2.82,2.82,0,0,1-1.009-.283.29.29,0,0,0-.367.405h-.176a.778.778,0,0,1-.619-.879.818.818,0,0,1,.909-.917h.886L63.6,12a6.183,6.183,0,0,0,1.024-2.346.4.4,0,0,0-.076-.237l.764-2.079a1.972,1.972,0,0,0-1.337-.252.573.573,0,0,1-.543-.581h-.6a.81.81,0,0,1-.9-.925.932.932,0,0,1,.222-.688.359.359,0,0,0,.229.13h.061a.764.764,0,0,0,.52.405c.558.145,1.108-.29,1.651-.329a.267.267,0,0,0,.16-.076c.726,0,1.46,0,2.186.053a9.476,9.476,0,0,0,2.063.107h.061a.313.313,0,0,0,.053.076l3.645,9.171a.558.558,0,0,1,.619-.6,1.529,1.529,0,0,0-.031,1.078.466.466,0,0,1-.29-.13.782.782,0,0,1-.13-.1l1.956,4.891h.718a.825.825,0,0,1,.925.917.81.81,0,0,1-.925.909H73.66a.275.275,0,0,0-.329-.275c-.68.069-1.826.275-1.941.275H70.7a.8.8,0,0,1-.917-.909.818.818,0,0,1,.917-.917h0l-.061-.046a.573.573,0,0,1-.252-.428c.405,0,.764-.038.925-.474l.053.046a.68.68,0,0,1-.107.9h.909a.718.718,0,0,1,.13-.39,2.162,2.162,0,0,1,.313-.329l-.94-2.415a.329.329,0,0,1-.183,0,.955.955,0,0,1-.3-.076.711.711,0,0,1-.321-.313H64.084l-.168.443h0l-.084-.053h-.053a.283.283,0,0,0-.237,0l-.084.084h0c0,.046-.038.069-.038.092a1.528,1.528,0,0,1-.344.581.283.283,0,0,0-.306.26Zm4.646-9.813a.527.527,0,0,0-.069.138v.046a1.423,1.423,0,0,0-.046.183,1.355,1.355,0,0,1,0-.183.145.145,0,0,0-.283-.053.306.306,0,0,0-.267.138h0a12.281,12.281,0,0,0-1.2,2.973,2.2,2.2,0,0,0-.229.512c-.069.168-.718,1.284-.566,1.758.336,1.123,2.988.764,3.775.68h.26a1.215,1.215,0,0,0,1.032-.222,1.8,1.8,0,0,0,.489.306.275.275,0,0,0,.252-.466,3.4,3.4,0,0,1-.6-.718c-.115-.229-.352-1.223-.42-1.429V11.47c-.191-1.131-.764-2.132-.871-3.271a.29.29,0,0,0-.558,0,2.843,2.843,0,0,0-.864-.7c-.222-.053-.3.16-.115.26Zm-1.383,4.585c0,.038-.053.038-.1.076a.275.275,0,0,0,.061-.107Zm.275-1.651a.321.321,0,0,1,0,.107,1.253,1.253,0,0,0-.16.222,2.6,2.6,0,0,1,.153-.359Zm.971,1.72a.115.115,0,0,1,0,.046v.061l-.1-.046v-.1h.046ZM70.6,14.244Z" transform="translate(2649.468 -147.902)" fill="#3e3a39"/><path d="M92.129,10.54a.283.283,0,0,0,.13-.52h.8a.306.306,0,0,0,.237-.382h1.215V9.363a.3.3,0,0,0,.306-.321,9.028,9.028,0,0,0-.092-1.131.275.275,0,0,0-.222-.229V6.276a.81.81,0,0,1,.887-.917.26.26,0,0,0,.29,0,.848.848,0,0,1,.352.153v.183a.046.046,0,0,0,0,.038v.115a5.15,5.15,0,0,0,0,1.62.283.283,0,0,0-.222.252c0,.329-.092.764.313.848a.359.359,0,0,0,.2,0V9.585a.283.283,0,0,0,.092.367.627.627,0,0,0,.329.2A.436.436,0,0,0,97,10.089a.267.267,0,0,0,.076-.1l.275.245a.375.375,0,0,0,.275,0,.382.382,0,0,0,.191-.222c-.092-.153,0-.367.283-.405h2.247a.275.275,0,0,1,.206.382h.413a.29.29,0,0,0,.229-.382h1.421a.825.825,0,0,1,.917.925.818.818,0,0,1-.917.917h-.367a.979.979,0,0,1-.145-.084h-.214a2.835,2.835,0,0,0-.718-.16.321.321,0,0,0-.329.267h-.336a.283.283,0,0,0-.168-.451H98.465c-.26.046-.367.237-.29.4H97.158a.382.382,0,0,0-.229.084h-.313a5.306,5.306,0,0,1-.306.512V13.2c-.138,0-.4.275-.481.764a6.419,6.419,0,0,0,.245,1.933.329.329,0,0,0,.237.283v.581a1.918,1.918,0,0,1,0-.336.283.283,0,0,0-.566,0c.046.68.168,1,.183,1.4a.55.55,0,0,0,.092.222v.993c.046.26.267.352.42.252a3.637,3.637,0,0,0,.2.627c-.214-.069-.413.153-.29.42a1.674,1.674,0,0,0,.764.436l.046.107c.26.6,1.207.81,2,.7h0c0,.1.1.16.26.183l.275-.053a3.057,3.057,0,0,0,1.773-.344c.214.52,1.826-.283,2.117-.512a.283.283,0,0,0,0-.42,1.467,1.467,0,0,1,1.177-.535.29.29,0,0,0,.252-.336.649.649,0,0,1,.16.13.986.986,0,0,1,.267.673.871.871,0,0,1-.428.764l-1.719.887a10.4,10.4,0,0,1-4.081.894,6.167,6.167,0,0,1-2.293-.374c.329-.069.306-.443,0-.55h-.642a.29.29,0,0,0-.229.084,4.249,4.249,0,0,1-1.582-3.256.283.283,0,0,0,.245-.4.459.459,0,0,1-.084-.168.87.87,0,0,0,.115-.168c.046-.894.367-2.774-.222-3.684v-1.88a.367.367,0,0,0-.122-.352c-.275-.084-.3-.436-.55-.55a1.94,1.94,0,0,1,0-.4.978.978,0,0,1-.3,0,.283.283,0,0,0-.535.168.392.392,0,0,0,0,.092H91.6a.81.81,0,0,1-.925-.917v-.122h.038a.887.887,0,0,1,.42-.2h.046c0,.13.107.245.29.283a.481.481,0,0,0,.153,0,.436.436,0,0,0,.222.092Zm2.293.917a.566.566,0,0,0,.038.176l.053.183v-.359Z" transform="translate(2641.952 -148.012)" fill="#3e3a39"/><path d="M130.165,20.673h1.085a.315.315,0,0,0,.283.344c.474,0,.963.084,1.437.1a1.009,1.009,0,0,1,.092.474.81.81,0,0,1-.925.909h-2.094c.153-.153.084-.367-.153-.459h-.374c-.237,0-.367.168-.321.321a3.263,3.263,0,0,0-1.888.038l-.16.092h-1.88a7.91,7.91,0,0,0-1.995-.183.344.344,0,0,0-.3.183h-.588a.818.818,0,0,1-.917-.909,1.59,1.59,0,0,1,.061-.42.275.275,0,0,0,.145.046,1.529,1.529,0,0,0,1.108-.459l.053-.084h1.9a.2.2,0,0,1-.046-.069c-.069-.16-.084-.206,0-.359a.8.8,0,0,1,.611-.252.955.955,0,0,0,.092-.245c0-1.528.122-3.057.214-4.585-.1,0-.176-.092-.214-.222-.038-.3-.061-.26-.138-.374-.13-.329.153-.535.4-.367V14.1c-.1-.29-.191-.573-.29-.9h-.092V11.984a.267.267,0,0,1-.237-.206,1.039,1.039,0,0,0-.283-.275.267.267,0,0,1-.466-.206h-1.337a.81.81,0,0,1-.925-.9.818.818,0,0,1,.925-.917.26.26,0,0,0,.168.352c1.269.451,1.047,0,2.186-.076.168-.038.26-.115.26-.275h.634a.94.94,0,0,1,.925.917v.13a.29.29,0,0,1,.321.13,1.7,1.7,0,0,1,.191.627,2.659,2.659,0,0,1,.527-.283.764.764,0,0,0,.214-.138.267.267,0,0,1,.451.092,7.52,7.52,0,0,1,4.387-1.406,3.622,3.622,0,0,1,2.063.581.252.252,0,0,0,.107.2.247.247,0,0,0-.145.405.275.275,0,0,0,.5-.214l.038.046a.917.917,0,0,1,.267.642.971.971,0,0,1-.963.963.886.886,0,0,1-.65-.3,1.8,1.8,0,0,0-.971-.42.306.306,0,0,0-.214-.374,5.2,5.2,0,0,0-1.253.115,3.489,3.489,0,0,0-2.5.65,2.832,2.832,0,0,0-1.857,2.514c-.222.107-.26.313-.122.459-.138.16-.275.336-.405.52v1.123h-.069a2.7,2.7,0,0,0-.26.443c0,.55,0,1.085.038,1.62.1.267.191.527.29.81v.627a2.98,2.98,0,0,1,.764.718h.887a1.59,1.59,0,0,0,1.23.443.29.29,0,0,0,.183-.443Zm-3.057-8.292v.069a.206.206,0,0,1,.038-.053s-.038,0-.046-.015Zm.481-.428.084-.069a.115.115,0,0,1-.069,0,.221.221,0,0,0-.023.069Zm.718,1.911a2.843,2.843,0,0,1,.382-.825c-.061.191-.115.374-.16.573Zm1.444-1.528h0s-.015.008-.015.015Z" transform="translate(2634.633 -148.982)" fill="#3e3a39"/><path d="M158.364,18.084V16.876c.076-1.238.176-2.446.229-3.684,0-.466.122-1-.229-1.192V10.732a.313.313,0,0,1-.206-.053s-.046,0-.061-.061c-.153.046-.306-.046-.344-.267a6.276,6.276,0,0,0-.046-1.047h-.359a.374.374,0,0,0-.206-.16c-.382,0-.718.138-1.062.16h-.971a.8.8,0,0,1-.917-.9.81.81,0,0,1,.481-.848c0,.153.076.252.3.29.466,0,2,.214,2.392-.237l.061-.122h1.849a.925.925,0,0,1,.909.917V9.929a.283.283,0,0,0-.39.229c0,.6-.084,1.162-.092,1.765.046.329.344.367.481.183v2.384a.29.29,0,0,0-.39.229,15.706,15.706,0,0,0,.092,2.766h0a.268.268,0,0,0,.283.206v.94h2.545c.3.413,1.269.176,1.918,0h.543a.825.825,0,0,1,.917.917.81.81,0,0,1-.917.909h-3.057c-.5-.107-.611-.336-1.123-.382a25.641,25.641,0,0,0-3.2.176c-1.253.1-2.522.168-3.768.206h-.558a.81.81,0,0,1-.917-.909.825.825,0,0,1,.917-.917h.321a.3.3,0,0,0,.115.2c.573.344,1.085,0,1.674-.038a.329.329,0,0,0,.222-.16h1.765a1.529,1.529,0,0,1,.764-.588Zm0-7.91V9.738l-.046-.061v.489Zm1.345-6.733c.046.321.344.367.481.176v.627a.913.913,0,1,1-1.826,0V1.882A.81.81,0,0,1,159.281,1a.764.764,0,0,1,.909.825.3.3,0,0,0-.206.237C159.945,2.524,159.77,2.944,159.709,3.441Z" transform="translate(2627.247 -146.981)" fill="#3e3a39"/><path d="M184.09,10.339a8.889,8.889,0,0,0-.4,2.736v.038a.566.566,0,0,1,.13.252,3.24,3.24,0,0,0,.222.909,3.516,3.516,0,0,0,.206,1.322,6.45,6.45,0,0,0,1.681,2.766v.115a4.141,4.141,0,0,0,.489.374,1.7,1.7,0,0,0,.222.214.436.436,0,0,0,.183,0,5.525,5.525,0,0,0,2.644.611,10.875,10.875,0,0,0,1.253-.069.7.7,0,0,1,.267-.443,3.9,3.9,0,0,1,1.528-.718.627.627,0,0,1,.55.229c.359-.222.818-.52,1.345-.887a.917.917,0,0,1,1.444.764.871.871,0,0,1-.428.764,19.008,19.008,0,0,1-2.69,1.635,8.407,8.407,0,0,1-3.3.566,6.878,6.878,0,0,1-5.579-2.553,8.217,8.217,0,0,1-1.528-2.553.634.634,0,0,1-.4-.13.527.527,0,0,1,.1-.94,11.138,11.138,0,0,1-.229-2.293A9.645,9.645,0,0,1,183.776,7,6.756,6.756,0,0,1,189.4,4.217a6.878,6.878,0,0,1,3.057.6.642.642,0,0,1,.6-.443h.841l.634-.16a.81.81,0,0,1,.917.909h0a6.647,6.647,0,0,0-.313,1.681,33.587,33.587,0,0,0-.543,3.653h-.054c-.611,0-.917-.321-.917-.955a3.385,3.385,0,0,0-.306-1.528.451.451,0,0,1-.168-.107.474.474,0,0,1-.245-.543,2.191,2.191,0,0,0-.306-.321,4.585,4.585,0,0,0-3.164-.993,4.891,4.891,0,0,0-3.1,1.093l-.115.153A4.127,4.127,0,0,0,184.7,9.926.581.581,0,0,1,184.09,10.339Zm.718,5.35a.556.556,0,0,1-.038-.107l.038.038Zm6.045-7.9a2.545,2.545,0,0,0-.573,0,.29.29,0,0,0-.306.344c-.566-.451.092-1.292.764-.833a.711.711,0,0,1,.115.466Z" transform="translate(2620.317 -147.742)" fill="#3e3a39"/><path d="M224.769,6.193a.635.635,0,0,1-.145.405,9.172,9.172,0,0,1,.588.856,10.7,10.7,0,0,1,1.376,5.495,10.493,10.493,0,0,1-1.376,5.434,6.313,6.313,0,0,1-5.831,3.248,6.534,6.534,0,0,1-5.923-3.194A10.454,10.454,0,0,1,212,12.826a10.134,10.134,0,0,1,1.452-5.5A7.184,7.184,0,0,1,223.844,5.8a.566.566,0,0,1,.932.329Zm-.925,10.187a10.558,10.558,0,0,0,.5-2.232c0-.321-.382-.466-.535-.153v.092a.764.764,0,0,0-.1.267,6.953,6.953,0,0,0,.069-.818V13.4l-.046-.076a.375.375,0,0,0-.092-.1h-.222a15.2,15.2,0,0,0,.168-1.727.6.6,0,0,1,.374-.481c-.053-.611-.084-1.154-.084-1.658a.466.466,0,0,1,.107-.29,5.528,5.528,0,0,0-.321-.611A4.647,4.647,0,0,0,219.4,6.086a4.86,4.86,0,0,0-4.356,2.293,8.216,8.216,0,0,0-1.169,4.524,8.239,8.239,0,0,0,1.2,4.585,3.627,3.627,0,0,0,.214.336.627.627,0,0,1,.588.474V18.5a4.112,4.112,0,0,0,1.452.948,1.177,1.177,0,0,1,.3-.069h.925a7.041,7.041,0,0,0,1.3-.145c-.084.214,0,.344.26.39a3.821,3.821,0,0,0,2.1-.764.611.611,0,0,0,.076-.2,1.45,1.45,0,0,0,.222-.115c.619-.122.8-.642.871-1.246a1.987,1.987,0,0,0,.474-.764V16.5Zm-5.35.512a.932.932,0,0,1-.2,0c-.367,0-.42.481,0,.558h.092a1.039,1.039,0,0,1,.191.053.481.481,0,0,1-.764.214c-.6-.459,0-1.314.764-.871-.122.031-.122.031-.1.038ZM225.373,20a5.037,5.037,0,0,1-.6.848.55.55,0,0,1,.588-.848Zm.2.825a2.749,2.749,0,0,1-.252.267c-.115.084-.053,0-.092,0l.16-.214a.252.252,0,0,0,.13-.053Z" transform="translate(2613.097 -147.746)" fill="#3e3a39"/><path d="M237.905,25.778a1.59,1.59,0,0,1-2.705-1.139,1.577,1.577,0,0,1,1.59-1.59,1.6,1.6,0,0,1,1.116,2.728Zm-2.048-2.063a1.322,1.322,0,0,0,0,1.857,1.307,1.307,0,0,0,1.857,0,1.319,1.319,0,1,0-1.865-1.865Zm.237,1.8V23.776h.856a.848.848,0,0,1,.344.092.443.443,0,0,1,.237.42.382.382,0,0,1-.122.321.573.573,0,0,1-.306.115.588.588,0,0,1,.252.1.481.481,0,0,1,.153.4v.16a.435.435,0,0,0,0,.053v.1h-.443a1.3,1.3,0,0,1,0-.245.827.827,0,0,0,0-.214.214.214,0,0,0-.13-.13.52.52,0,0,0-.16,0h-.2v.627Zm.841-1.414a.764.764,0,0,0-.267,0h-.092v.512h.176a.428.428,0,0,0,.252-.061.237.237,0,0,0,.092-.206.2.2,0,0,0-.161-.245Z" transform="translate(2607.625 -152.226)" fill="#3e3a39"/></g><text transform="translate(163 228.896)" fill="#3e3a39" font-size="14" font-family="ShipporiMinchoB1-Regular, Shippori Mincho B1" letter-spacing="0.1em"><tspan x="-98.259" y="0">“ひととき”を想うひとしずく</tspan></text></g></svg>