<svg xmlns="http://www.w3.org/2000/svg" width="306.105" height="203.186" viewBox="0 0 306.105 203.186">
  <g id="osusume-flavor-scene-1" transform="translate(-87.594 -4082.131)">
    <g id="グループ_271" data-name="グループ 271" transform="translate(268.12 -181.56) rotate(3)">
      <text id="ちょっと落ち込む出来事があったので_リセットして気分を上げたい" data-name="ちょっと落ち込む出来事があったので、
リセットして気分を上げたい" transform="translate(207 4312)" fill="#fbfbfb" font-size="16" font-family="HiraKakuStd-W6, Hiragino Kaku Gothic Std"><tspan x="-143.76" y="0">ちょっと落ち込む出来事があったので、</tspan><tspan x="-103.6" y="24">リセットして気分を上げたい</tspan></text>
      <text id="SCENE_01" data-name="SCENE 01" transform="translate(207 4277)" fill="#fbfbfb" font-size="16" font-family="Lato-Regular, Lato" letter-spacing="0.12em"><tspan x="-43.08" y="0">SCENE 01</tspan></text>
    </g>
    <g id="グループ_270" data-name="グループ 270" transform="translate(0 -171.545)">
      <g id="グループ_268" data-name="グループ 268" transform="translate(-1562.833 3780.44)">
        <path id="パス_382" data-name="パス 382" d="M1716.3,672.167q-.686,0-1.378-.006a133.379,133.379,0,0,1-24.081-1.837l.173-.985a130.931,130.931,0,0,0,22.558,1.827q.671,0,1.345-.006h.008c.459,0,.919.006,1.374.006,12.235,0,23.149-1.388,32.462-4.129a63.615,63.615,0,0,0,12.613-5.124,39.955,39.955,0,0,0,9.331-6.909,27.27,27.27,0,0,0,5.875-8.758,25.191,25.191,0,0,0,1.83-10.281v-.027a25.191,25.191,0,0,0-1.831-10.281,27.272,27.272,0,0,0-5.876-8.758,39.953,39.953,0,0,0-9.331-6.909,63.611,63.611,0,0,0-12.613-5.124c-9.312-2.741-20.228-4.129-32.462-4.129q-.684,0-1.374.006h-.008c-12.793-.108-24.177,1.28-33.837,4.123a63.61,63.61,0,0,0-12.613,5.124,39.952,39.952,0,0,0-9.331,6.909,27.271,27.271,0,0,0-5.875,8.758,25.191,25.191,0,0,0-1.83,10.281v.027a25.079,25.079,0,0,0,5.866,16.991c4.008,4.894,9.925,8.918,17.588,11.957l-.369.93c-7.823-3.1-13.876-7.226-17.993-12.253a29.357,29.357,0,0,1-4.187-28.311,28.263,28.263,0,0,1,6.087-9.08,40.948,40.948,0,0,1,9.563-7.085,64.607,64.607,0,0,1,12.812-5.207c9.753-2.871,21.234-4.271,34.123-4.164.46,0,.921-.006,1.378-.006,12.331,0,23.34,1.4,32.745,4.169a64.612,64.612,0,0,1,12.812,5.207,40.951,40.951,0,0,1,9.563,7.085,28.264,28.264,0,0,1,6.088,9.08,30.853,30.853,0,0,1,0,21.347,28.265,28.265,0,0,1-6.087,9.08,40.948,40.948,0,0,1-9.564,7.086A64.608,64.608,0,0,1,1749.049,668C1739.645,670.765,1728.635,672.167,1716.3,672.167Z" fill="#fff"/>
        <g id="グループ_267" data-name="グループ 267">
          <path id="パス_383" data-name="パス 383" d="M1663.693,629.426a.809.809,0,0,1,1.274-1c1.3,1.335,3.792,1.228,6.109.568,1.273-.353,1.642,1.305.4,1.688C1668.436,631.636,1664.752,630.914,1663.693,629.426Zm1.719-6.263c-1.213.231-1.413-1.4-.047-1.6a16.3,16.3,0,0,1,4.9.046c1.29.277.952,1.858-.291,1.6A11.7,11.7,0,0,0,1665.412,623.163Z" fill="#fff"/>
          <path id="パス_384" data-name="パス 384" d="M1681.32,623.163a12.081,12.081,0,0,1-3.1,6.217c-1.181,1.089-2.47.491-3.145-.829-.968-1.9.061-4.759,2.117-6.186a6.411,6.411,0,0,1,6.631-.353,4.541,4.541,0,0,1,1.427,6.446,6.409,6.409,0,0,1-3.745,2.533c-1.35.353-1.826-1.2-.506-1.5a4.751,4.751,0,0,0,2.854-1.719,3.313,3.313,0,0,0-.843-4.7,3.993,3.993,0,0,0-1.9-.614A.768.768,0,0,1,1681.32,623.163Zm-3.407.292c-1.428,1.1-2.2,3.146-1.551,4.329.23.444.63.674,1.014.337a9.213,9.213,0,0,0,2.378-5.111,1.08,1.08,0,0,1,.139-.476A5.094,5.094,0,0,0,1677.913,623.455Z" fill="#fff"/>
          <path id="パス_385" data-name="パス 385" d="M1690,629.809a9.5,9.5,0,0,0,6.094-6.124c.122-.414.076-.8-.492-.813-1.5-.046-3.929.046-6.14.122a.76.76,0,1,1-.03-1.519c2.026-.092,4.9-.108,6.845-.077a1.615,1.615,0,0,1,1.674,2.211,11.745,11.745,0,0,1-7.245,7.689C1689.4,631.789,1688.833,630.178,1690,629.809Z" fill="#fff"/>
          <path id="パス_386" data-name="パス 386" d="M1703.835,630.208c-1.027.507-2.393.2-2.348-1.427.046-1.75.077-5.48.031-6.508a.806.806,0,1,1,1.611-.03c.031,1.089-.015,4.527-.061,5.694-.015.43.383.583.752.383a15.578,15.578,0,0,0,5.541-5.064.835.835,0,1,1,1.411.889A20.8,20.8,0,0,1,1703.835,630.208Z" fill="#fff"/>
          <path id="パス_387" data-name="パス 387" d="M1714.142,626a.739.739,0,0,1-.814-.737.783.783,0,0,1,.814-.782h9.639a.76.76,0,1,1,0,1.519Z" fill="#fff"/>
          <path id="パス_388" data-name="パス 388" d="M1726.2,627.906a8.6,8.6,0,0,0,3.255-4.1.836.836,0,1,1,1.55.614,11.723,11.723,0,0,1-3.837,4.866A.848.848,0,1,1,1726.2,627.906Zm10.422.645a11.485,11.485,0,0,0-2.962-4.267c-.736-.63.292-1.735,1.213-.921,1.336,1.182,3.054,3.162,3.423,4.574C1738.6,629.119,1736.989,629.748,1736.62,628.551Zm-1.534-6.078c-.783-.323-.169-1.259.537-1a4.794,4.794,0,0,1,1.52.936c.6.645-.291,1.566-.8.967A5.368,5.368,0,0,0,1735.086,622.473Zm1.4-1.32c-.782-.308-.23-1.244.491-1.013a4.95,4.95,0,0,1,1.55.89c.615.614-.245,1.566-.768.982A5.6,5.6,0,0,0,1736.483,621.153Z" fill="#fff"/>
          <path id="パス_389" data-name="パス 389" d="M1741.632,626a.74.74,0,0,1-.814-.737.783.783,0,0,1,.814-.782h9.639a.76.76,0,1,1,0,1.519Z" fill="#fff"/>
          <path id="パス_390" data-name="パス 390" d="M1759.86,622.994c1.288-.107,2.271.645,2.333,2.364a9.158,9.158,0,0,1-.522,3.423,2.975,2.975,0,0,1-3.607,1.842c-1.212-.353-.721-1.765.215-1.535a1.467,1.467,0,0,0,1.95-.829,6.865,6.865,0,0,0,.491-2.655c0-.937-.323-1.382-1.029-1.32-.23.015-.461.046-.706.076a22.627,22.627,0,0,1-2.978,6.171c-.736,1.044-2.332.153-1.335-.967a14.814,14.814,0,0,0,2.717-4.989l-.185.031a10.386,10.386,0,0,1-1.657.215.738.738,0,1,1-.046-1.474c.476-.046.951-.03,1.5-.076l.768-.077a16.271,16.271,0,0,0,.475-2.44c.107-1,1.673-.906,1.551.122a20.434,20.434,0,0,1-.445,2.165Zm5.648,3.454a5.508,5.508,0,0,0-2.2-2.64c-.752-.414-.076-1.565.875-1.013a6.359,6.359,0,0,1,2.732,2.916C1767.3,626.724,1765.923,627.4,1765.508,626.448Zm-1.4-4.728c-.8-.291-.246-1.243.476-1.013a4.919,4.919,0,0,1,1.565.86c.629.6-.2,1.566-.737,1A5.337,5.337,0,0,0,1764.112,621.72Zm1.319-1.366c-.8-.26-.307-1.243.43-1.043a5.085,5.085,0,0,1,1.611.8c.645.583-.168,1.581-.721,1.028A5.36,5.36,0,0,0,1765.431,620.354Z" fill="#fff"/>
          <path id="パス_391" data-name="パス 391" d="M1682.735,649.779c.122,2.2-1.842,2.165-3.1,1.55-1.826-.889-1.32-1.979-.506-2.87a9.883,9.883,0,0,1,2.163-1.627c-.015-.644-.03-1.3-.03-1.918a5.741,5.741,0,0,1-1.842.061c-1.136-.138-.951-1.673.323-1.412a3.848,3.848,0,0,0,1.549-.138c0-.722-.03-1.213-.061-1.8a.778.778,0,1,1,1.551-.015c-.031.337-.046.828-.077,1.289a4.665,4.665,0,0,0,.615-.353c.828-.553,1.764.66.689,1.3a8.836,8.836,0,0,1-1.442.692c-.016.475-.016,1.043,0,1.626a9.431,9.431,0,0,1,1.289-.475,5.883,5.883,0,0,1,3.408.015c2.532.874,2.118,2.947,1.335,4.083a3.748,3.748,0,0,1-4.927.921.732.732,0,1,1,.66-1.3c1.2.583,2.179.6,2.917-.384a1.226,1.226,0,0,0-.538-2.072,4.288,4.288,0,0,0-2.487-.03,7.74,7.74,0,0,0-1.611.583C1682.642,648.321,1682.7,649.119,1682.735,649.779Zm-2.578-.491c-.323.353-.323.752.03.921.659.322,1.1.276,1.121-.322.015-.415.015-.983,0-1.612A7.507,7.507,0,0,0,1680.157,649.288Zm8.7-4.85a2.869,2.869,0,0,0-2.026-.63.682.682,0,1,1-.076-1.35,4.7,4.7,0,0,1,3.192.875.745.745,0,0,1,.015,1.089A.773.773,0,0,1,1688.859,644.438Z" fill="#fff"/>
          <path id="パス_392" data-name="パス 392" d="M1696.572,647.738a2.12,2.12,0,0,1,1.228-2.886,3.034,3.034,0,0,1,1.32-.138c-.015-.338-.03-.8-.045-1.243-1.29.123-2.564.307-3.362.43-1.1.168-1.828.368-2.287.445a.781.781,0,1,1-.123-1.551c.614-.107,1.611-.214,2.256-.322.767-.123,2.148-.291,3.5-.414v-.277c.017-.951-.076-1.013-.076-1.5a.806.806,0,0,1,1.611-.046c.016.353-.03,1.059-.061,1.473,0,.077-.015.154-.015.231.445-.031.843-.046,1.182-.046.751,0,1.289-.015,2.332,0,1.29.03,1.229,1.658,0,1.566-1.09-.093-1.457-.093-2.409-.108-.353,0-.722.015-1.12.031.015.491.03.967.03,1.412,0,.214.031.537.046.875,1.366,2.148-.261,5.4-1.888,6.707-1.028.814-2.364-.276-1.028-1.228a5.461,5.461,0,0,0,1.75-2.256A1.961,1.961,0,0,1,1696.572,647.738Zm2.579-1.612a1,1,0,0,0-.983-.061.94.94,0,0,0-.444,1.166.912.912,0,0,0,1.764-.261.694.694,0,0,0-.092-.583A2.017,2.017,0,0,0,1699.151,646.126Z" fill="#fff"/>
          <path id="パス_393" data-name="パス 393" d="M1711.315,647.738a2.119,2.119,0,0,1,1.227-2.886,3.035,3.035,0,0,1,1.32-.138c-.015-.338-.03-.8-.045-1.243-1.29.123-2.563.307-3.362.43-1.1.168-1.827.368-2.287.445a.781.781,0,1,1-.123-1.551c.614-.107,1.611-.214,2.256-.322.768-.123,2.149-.291,3.5-.414v-.277c.016-.951-.077-1.013-.077-1.5a.806.806,0,0,1,1.611-.046c.017.353-.03,1.059-.061,1.473,0,.077-.015.154-.015.231.445-.031.844-.046,1.182-.046.752,0,1.289-.015,2.333,0,1.289.03,1.228,1.658,0,1.566-1.09-.093-1.458-.093-2.41-.108-.352,0-.721.015-1.12.031.015.491.03.967.03,1.412,0,.214.031.537.046.875,1.366,2.148-.261,5.4-1.888,6.707-1.027.814-2.363-.276-1.027-1.228a5.451,5.451,0,0,0,1.749-2.256A1.961,1.961,0,0,1,1711.315,647.738Zm2.578-1.612a1,1,0,0,0-.982-.061.94.94,0,0,0-.445,1.166.913.913,0,0,0,1.765-.261.69.69,0,0,0-.093-.583A1.883,1.883,0,0,0,1713.893,646.126Z" fill="#fff"/>
          <path id="パス_394" data-name="パス 394" d="M1725.227,649.165c-1.811,1.949-3.422,1.275-3.836-.66a4.913,4.913,0,0,1,1.688-4.374c-.107-.323-.215-.66-.291-1-.078-.307-.231-1.013-.293-1.335-.261-1.274,1.474-1.259,1.535-.169a10.838,10.838,0,0,0,.154,1.274,2.777,2.777,0,0,0,.076.338,3.014,3.014,0,0,1,.307-.169,6.312,6.312,0,0,1,2.625-.645,9.492,9.492,0,0,0,.2-1.658c-.015-1.074,1.581-.951,1.52.169a10.8,10.8,0,0,1-.215,1.627,3.909,3.909,0,0,1,3.084,2.779c.8,2.839-1.09,4.957-3.744,5.909-1.167.429-1.919-1.028-.584-1.428,2.671-.813,3.27-2.579,2.9-4.037a2.707,2.707,0,0,0-1.98-2.056c-.046.138-.092.291-.153.445a17.3,17.3,0,0,1-1.566,3.1c.062.045.123.107.2.153a.657.657,0,0,1,.107.951.737.737,0,0,1-1.014.154c-.045-.031-.076-.046-.122-.077C1725.627,648.72,1725.427,648.95,1725.227,649.165Zm-1.672-3.745a3.381,3.381,0,0,0-.86,2.579c.23,1.2.951.86,1.381.414a9.644,9.644,0,0,0,.738-.875A8.449,8.449,0,0,1,1723.555,645.42Zm1.489-1.259a2.664,2.664,0,0,0-.445.277,6.72,6.72,0,0,0,1.043,1.872,12.284,12.284,0,0,0,1.2-2.486c.015-.061.046-.138.061-.215A4.942,4.942,0,0,0,1725.044,644.161Z" fill="#fff"/>
          <path id="パス_395" data-name="パス 395" d="M1738.483,651.867c-1.213.2-1.335-1.274-.277-1.427a6.029,6.029,0,0,0,3.223-1.29c.922-.814.968-1.657.508-2.18a2.8,2.8,0,0,0-2.871-.445,26.538,26.538,0,0,0-3.146,1.427.757.757,0,1,1-.661-1.35,28.462,28.462,0,0,1,3.531-1.32,4.311,4.311,0,0,1,4.129.783c1.289,1.335.768,3.039-.63,4.205A7.7,7.7,0,0,1,1738.483,651.867Z" fill="#fff"/>
          <path id="パス_396" data-name="パス 396" d="M1749.171,652.1a1.063,1.063,0,0,1-1.06-1.013,1.109,1.109,0,0,1,1.06-1.059.99.99,0,0,1,1.058,1.059A1.021,1.021,0,0,1,1749.171,652.1Zm-.66-3.9v-.322c0-1.489-.154-5.065-.246-7.475v-.046a.831.831,0,0,1,.889-.844.868.868,0,0,1,.921.89c0,1.811-.244,6.032-.244,7.521,0,.369,0,1.013-.677,1.013a.659.659,0,0,1-.643-.721Z" fill="#fff"/>
        </g>
        <path id="パス_397" data-name="パス 397" d="M1679.817,676.422l-3.481-13.621.969-.248,3.1,12.145,11.247-8.718.613.79Z" fill="#fff"/>
      </g>
      <g id="グループ_269" data-name="グループ 269" transform="translate(-1552.763 3788.71)">
        <path id="パス_398" data-name="パス 398" d="M1783.31,612.356l-.361-.932a57.473,57.473,0,0,0,14.38-8.1,55.745,55.745,0,0,0,11.261-11.646,52.687,52.687,0,0,0,9.966-30.855h1a53.682,53.682,0,0,1-10.153,31.438,56.746,56.746,0,0,1-11.463,11.855A58.473,58.473,0,0,1,1783.31,612.356Z" fill="#fff"/>
        <path id="パス_399" data-name="パス 399" d="M1791.006,615.125l-12.059-1.439,4.766-8.172.864.5-4,6.856,10.547,1.258Z" fill="#fff"/>
      </g>
    </g>
  </g>
</svg>
