<svg xmlns="http://www.w3.org/2000/svg" width="174.009" height="277.566" viewBox="0 0 174.009 277.566">
  <g id="osusume-flavor" transform="translate(-119.501 -3776.455)">
    <g id="osusume-flavor-2" data-name="osusume-flavor" transform="translate(-1048.841 2673.947)">
      <path id="パス_327" data-name="パス 327" d="M1254.437,1276.566q-3.721,0-7.458-.32a86.615,86.615,0,0,1-17.116-3.222,85.516,85.516,0,0,1-29.528-15.52,86.231,86.231,0,0,1-27.8-40.356,85.551,85.551,0,0,1-3.612-16.51,86.623,86.623,0,0,1-.258-17.415,85.659,85.659,0,0,1,26.319-54.866l.69.724a84.66,84.66,0,0,0-26.013,54.228,85.613,85.613,0,0,0,.255,17.213,84.515,84.515,0,0,0,10.142,31.37,85.231,85.231,0,0,0,34.622,33.875,84.549,84.549,0,0,0,15.47,6.3,85.57,85.57,0,0,0,45.091.909,84.634,84.634,0,0,0,25.014-10.883l.541.841a85.538,85.538,0,0,1-46.356,13.634Z" fill="#3e3a39" opacity="0.505"/>
      <g id="グループ_249" data-name="グループ 249">
        <g id="グループ_248" data-name="グループ 248">
          <path id="パス_328" data-name="パス 328" d="M1203.331,1162.063a1.522,1.522,0,0,1-.364-.276,7.908,7.908,0,0,0-.908-.891q-.354-.276-.9-.627a6.047,6.047,0,0,0-1-.523c-.292-.113-.477-.186-.556-.222-.127-.051-.19-.109-.188-.173q0-.144.523-.189a8.68,8.68,0,0,1,1-.029,5.329,5.329,0,0,1,2.525.664,1.781,1.781,0,0,1,1.056,1.628.87.87,0,0,1-.209.547.64.64,0,0,1-.536.223A.949.949,0,0,1,1203.331,1162.063Zm-1.555,7.373a6.516,6.516,0,0,1-.848-1.707,4.985,4.985,0,0,1-.372-1.573c.008-.271.09-.405.251-.4.064,0,.15.076.257.223l.324.443a1.691,1.691,0,0,0,1.3.567,3.017,3.017,0,0,0,1.329-.271,34.512,34.512,0,0,0,6.879-4.008,33.068,33.068,0,0,0,6.139-5.709q.225-.306.417-.3a.128.128,0,0,1,.141.149.906.906,0,0,1-.182.451,31.459,31.459,0,0,1-4.276,4.829,44,44,0,0,1-4.909,3.97,37.263,37.263,0,0,1-4.342,2.63,4.22,4.22,0,0,0-.785.577,3.921,3.921,0,0,1-.445.371.575.575,0,0,1-.339.11A.733.733,0,0,1,1201.776,1169.436Zm4.162-12.242a.95.95,0,0,1-.375-.3,9.107,9.107,0,0,0-1.033-1.148,8.258,8.258,0,0,0-1.069-.789,5.853,5.853,0,0,0-.649-.344,3.513,3.513,0,0,1-.438-.218.549.549,0,0,1-.143-.063.178.178,0,0,1-.115-.16c0-.144.28-.207.823-.192a7.93,7.93,0,0,1,1.97.324,4.685,4.685,0,0,1,1.68.843,1.549,1.549,0,0,1,.647,1.268,1.075,1.075,0,0,1-.224.654.66.66,0,0,1-.573.258A1.214,1.214,0,0,1,1205.938,1157.194Z" fill="#3e3a39"/>
          <path id="パス_329" data-name="パス 329" d="M1223.1,1163.162a2.831,2.831,0,0,1-.761-.672,1.341,1.341,0,0,1-.319-.9,1.387,1.387,0,0,1,.124-.525c.077-.173.154-.259.234-.256a.58.58,0,0,1,.213.126,1.785,1.785,0,0,0,.495.3,6.908,6.908,0,0,0,2.149.377q1.034.008,3.147.011t3.6,0q3.192-.024,5.308-.08,1.226-.036,1.922-.015a5.091,5.091,0,0,1,1.458.213.706.706,0,0,1,.505.759q-.016.578-1,.642c-.321.024-.762.026-1.321.009l-6.962-.042q-1.85-.008-4.024.047a22.369,22.369,0,0,0-2.826.179,5.183,5.183,0,0,1-.963.091A1.755,1.755,0,0,1,1223.1,1163.162Z" fill="#3e3a39"/>
          <path id="パス_330" data-name="パス 330" d="M1249.634,1158.2a4.627,4.627,0,0,0-1.4-1.434,7.441,7.441,0,0,0-1.87-.9,2.331,2.331,0,0,1-.308-.1c-.079-.034-.119-.076-.118-.124.005-.144.374-.2,1.111-.183a9.31,9.31,0,0,1,2.091.316,4.687,4.687,0,0,1,1.788.858,2.032,2.032,0,0,1,.864,1.61,1.073,1.073,0,0,1-.25.7.783.783,0,0,1-.645.257Q1250.227,1159.177,1249.634,1158.2Zm-3.663,9.182a1.367,1.367,0,0,1,.1-.513c.061-.134.115-.2.162-.2s.118.092.208.27a2.192,2.192,0,0,0,.37.515,2.711,2.711,0,0,0,.432.386,1.08,1.08,0,0,0,.584.149,7.933,7.933,0,0,0,3.185-1.3,46.057,46.057,0,0,0,5.431-3.761,67.144,67.144,0,0,0,6.255-5.611c.151-.172.281-.256.393-.252a.086.086,0,0,1,.093.1,1.182,1.182,0,0,1-.255.5,42.365,42.365,0,0,1-4.027,4.513q-2.323,2.283-4.479,4.055t-3.4,2.6a3.416,3.416,0,0,1-.491.3c-.146.092-.294.191-.44.3a3.938,3.938,0,0,0-.493.441,1.5,1.5,0,0,1-1.169.541,2.254,2.254,0,0,1-1.5-.7,2.867,2.867,0,0,1-.877-1.575A3,3,0,0,1,1245.971,1167.38Z" fill="#3e3a39"/>
          <path id="パス_331" data-name="パス 331" d="M1277.074,1153.551l.124-.165c.033-.047.088-.121.163-.223a1.2,1.2,0,0,1,.2-.223.267.267,0,0,1,.181-.066q.168,0,.684.453a5.522,5.522,0,0,1,.79.816.521.521,0,0,1,.113.244c0,.111-.087.221-.25.329l-.171.066a.552.552,0,0,0-.447.539l-.05,1.656q0,2.424.008,3.7l0,.12a.514.514,0,0,1-.254.473,3.1,3.1,0,0,1-.583.222,1.888,1.888,0,0,1-.555.079c-.128,0-.187-.157-.177-.461a.432.432,0,0,0-.123-.34.539.539,0,0,0-.369-.131l-2.685-.081a.486.486,0,0,0-.544.488l-.186,2.18,0,.071q-.014.456.467.471l2.854.086a.775.775,0,0,0,.632-.27l.126-.164c.048-.046.131-.136.248-.269a.445.445,0,0,1,.318-.194,1.656,1.656,0,0,1,.661.4,3.867,3.867,0,0,1,.744.766.529.529,0,0,1,.113.269c0,.128-.088.229-.25.3l-.146.043a.542.542,0,0,0-.473.538q-.516,6.854-1.9,8.082a3.106,3.106,0,0,1-1.774.716l-.073,0a.413.413,0,0,1-.32-.129.762.762,0,0,1-.145-.365.923.923,0,0,0-.294-.585,4.088,4.088,0,0,0-1.4-.547c-.3-.072-.451-.181-.446-.325,0-.128.181-.17.532-.128a20.511,20.511,0,0,0,2.178.234,1.687,1.687,0,0,0,.457-.035.9.9,0,0,0,.342-.181q.886-.765,1.431-6.872l0-.048a.446.446,0,0,0-.489-.519l-3.07-.093a.5.5,0,0,0-.566.463,15.36,15.36,0,0,1-1.662,4.945,11.279,11.279,0,0,1-3.571,3.782,1.711,1.711,0,0,1-.329.171.191.191,0,0,1-.2-.067.156.156,0,0,1-.044-.121.652.652,0,0,1,.251-.4,12.732,12.732,0,0,0,2.653-3.617,16.115,16.115,0,0,0,1.335-3.994,39.4,39.4,0,0,0,.56-4.641v-.048a.435.435,0,0,0-.123-.341.5.5,0,0,0-.343-.13l-.409-.012a.5.5,0,0,0-.376.121.506.506,0,0,0-.143.368l-.008.264c0,.111-.123.232-.358.36a1.609,1.609,0,0,1-.834.18.3.3,0,0,1-.259-.153.579.579,0,0,1-.087-.338q.126-.981.219-2.466l.045-1.488a37.38,37.38,0,0,0-.076-3.843v-.1c.008-.239.117-.356.325-.35a.515.515,0,0,1,.237.055l1.042.487a1.412,1.412,0,0,0,.6.138l5.325.161A.677.677,0,0,0,1277.074,1153.551Zm-.169,1.183a.506.506,0,0,0-.368-.143l-5.541-.167a.458.458,0,0,0-.518.488l-.131,4.342a.458.458,0,0,0,.488.519l5.541.167a.461.461,0,0,0,.52-.489l.131-4.342A.5.5,0,0,0,1276.905,1154.734Zm4.438,4.564a39.384,39.384,0,0,0-.087-4.3l0-.1a.4.4,0,0,1,.1-.272.342.342,0,0,1,.269-.1.83.83,0,0,1,.214.055,8.89,8.89,0,0,1,1.317.521c.243.134.364.251.361.346s-.077.157-.223.234l-.073.046a.674.674,0,0,0-.354.588l-.209,6.934q-.031,2.616.009,5.282l0,.12a.643.643,0,0,1-.232.5,2.034,2.034,0,0,1-.524.273,1.569,1.569,0,0,1-.592.1.446.446,0,0,1-.343-.154.49.49,0,0,1-.123-.34q.213-2.226.329-4.5Zm4.656-1.517a38.9,38.9,0,0,0-.088-4.3l0-.1a.391.391,0,0,1,.106-.273.332.332,0,0,1,.266-.1.734.734,0,0,1,.214.054,10.652,10.652,0,0,1,1.377.545q.378.2.373.348c0,.08-.076.158-.223.233l-.073.046a.641.641,0,0,0-.354.59l-.523,17.344a2.635,2.635,0,0,1-.431,1.548,2.477,2.477,0,0,1-1.629.7l-.121,0a.494.494,0,0,1-.49-.423,1.661,1.661,0,0,0-.387-.708,4.387,4.387,0,0,0-1.59-.624q-.478-.086-.472-.278c0-.08.124-.116.363-.109q.576.016,1.725.147a8.005,8.005,0,0,0,.909.1.659.659,0,0,0,.472-.118.577.577,0,0,0,.145-.416Z" fill="#3e3a39"/>
          <path id="パス_332" data-name="パス 332" d="M1305.167,1162a5.935,5.935,0,0,1,2.513,2.11,5.856,5.856,0,0,1,.909,3.567,5.607,5.607,0,0,1-1.372,3.7,7.332,7.332,0,0,1-3.341,2.1,13.008,13.008,0,0,1-4.339.572q-.539-.016-.536-.106c0-.059.107-.1.318-.134s.328-.044.353-.043a11.158,11.158,0,0,0,3.462-1.039,6.561,6.561,0,0,0,2.476-2.1,5.592,5.592,0,0,0,.985-3.122,5.77,5.77,0,0,0-.795-3.473,4.509,4.509,0,0,0-1.992-1.717,6.026,6.026,0,0,0-2.048-.484q-.276.19-.193.426a6.825,6.825,0,0,1,.313,2.171,9.106,9.106,0,0,1-.752,3.434,13.8,13.8,0,0,1-1.38,2.445,8.261,8.261,0,0,1-1.536,1.691,2.135,2.135,0,0,1-1.259.583,1.761,1.761,0,0,1-1.275-.759,5.582,5.582,0,0,1-.97-1.856,6.366,6.366,0,0,1-.332-2.163,6.03,6.03,0,0,1,1.206-3.547,7.214,7.214,0,0,1,2.878-2.282,8.047,8.047,0,0,1,3.533-.712A8.326,8.326,0,0,1,1305.167,1162Zm-4.012.193a.336.336,0,0,0-.423-.3,5.593,5.593,0,0,0-2.452.961,5.805,5.805,0,0,0-1.741,1.92,5.213,5.213,0,0,0-.686,2.428,4.583,4.583,0,0,0,.2,1.627,2.813,2.813,0,0,0,.564,1.025.936.936,0,0,0,.548.36q.755.021,2.222-2.023a11.66,11.66,0,0,0,1.372-2.515,7.872,7.872,0,0,0,.471-2.526A3.511,3.511,0,0,0,1301.155,1162.2Z" fill="#3e3a39"/>
          <path id="パス_333" data-name="パス 333" d="M1215.349,1192.365a4.6,4.6,0,0,1-1.039,2.622,8.256,8.256,0,0,1-2.443,2.172,5.07,5.07,0,0,1-2.69.807,1.913,1.913,0,0,1-1.364-.557,1.888,1.888,0,0,1-.5-1.443,5.887,5.887,0,0,1,1.27-3.06c.133-.172.239-.257.319-.254.064,0,.094.043.092.123a2.011,2.011,0,0,1-.258.617,5.8,5.8,0,0,0-.379,1,4.432,4.432,0,0,0-.187,1.1q-.034,1.1.758,1.127a3.93,3.93,0,0,0,2.073-.693,7.959,7.959,0,0,0,2.047-1.776,3.354,3.354,0,0,0,.886-1.942q.049-1.655-1.8-1.711a12.4,12.4,0,0,0-4.232.978,19.329,19.329,0,0,0-2.264,1.06.647.647,0,0,0-.331.614l.024,2.425a8.021,8.021,0,0,1-.16,1.305,3.952,3.952,0,0,1-.269.939,1.5,1.5,0,0,1-.387.481.711.711,0,0,1-.426.216.549.549,0,0,1-.309-.106.848.848,0,0,1-.252-.415,5.683,5.683,0,0,0-.913-1.564,4.769,4.769,0,0,0-1.08-.8.7.7,0,0,0-.31-.082.727.727,0,0,0-.387.108c-.131.078-.261.161-.392.252a2.115,2.115,0,0,1-.379.217.745.745,0,0,1-.3.075,1.248,1.248,0,0,1-.957-.52,1.587,1.587,0,0,1-.388-1.057.77.77,0,0,1,.271-.628.748.748,0,0,1,.45-.19,1.694,1.694,0,0,1,.464.145,1.738,1.738,0,0,0,.44.146.52.52,0,0,0,.169-.02,27.568,27.568,0,0,0,3.627-1.618.672.672,0,0,0,.377-.59l.113-2.973c.01-.3-.114-.46-.368-.468l-.219.041a10.831,10.831,0,0,1-1.43.414,3.006,3.006,0,0,1-.48.033,2.2,2.2,0,0,1-1.284-.423,7.193,7.193,0,0,1-.726-.609,6.109,6.109,0,0,1-.488-.508.526.526,0,0,1-.184-.317c0-.064.043-.095.123-.092a1.1,1.1,0,0,1,.405.132c.173.085.275.137.306.153a3.235,3.235,0,0,0,.715.226,5.18,5.18,0,0,0,.933.112,2.954,2.954,0,0,0,.456-.011,13.4,13.4,0,0,0,1.885-.4.563.563,0,0,0,.425-.564,10.4,10.4,0,0,0-.2-2.838,1.3,1.3,0,0,0-.484-.664,3.662,3.662,0,0,0-.639-.355c-.2-.086-.339-.147-.4-.181-.048-.016-.111-.042-.19-.077s-.118-.076-.117-.124c0-.063.048-.122.138-.176a1.219,1.219,0,0,1,.3-.123,2.208,2.208,0,0,1,.7-.1,3.015,3.015,0,0,1,1.012.211,2.581,2.581,0,0,1,.816.468,1.29,1.29,0,0,1,.352,1.067l-.04.5a.127.127,0,0,1-.027.095l0,.12a.718.718,0,0,0,.2.535,1.183,1.183,0,0,0,.327.321,3.817,3.817,0,0,0,1.157.636,2.313,2.313,0,0,0,.323.069.779.779,0,0,1,.391.168.415.415,0,0,1,.133.34.709.709,0,0,1-.133.453,1.055,1.055,0,0,1-.441.251l-.533.176c-.631.2-1.042.344-1.237.419a.56.56,0,0,0-.425.563l-.044,1.487-.036,1.2c.021.3.13.46.322.466a.756.756,0,0,0,.29-.087q.851-.383,1.507-.628,1.506-.506,2.81-.827a9.106,9.106,0,0,1,2.434-.288Q1215.426,1189.775,1215.349,1192.365Zm-11.2,1.824a.648.648,0,0,0-.073-.35.256.256,0,0,0-.223-.139.643.643,0,0,0-.316.111q-.734.457-1.349.919a.463.463,0,0,0-.251.353c0,.128.089.243.279.345a6.82,6.82,0,0,0,1.563.719c.144,0,.226-.1.248-.3C1204.05,1195.731,1204.09,1195.181,1204.152,1194.189Zm1.513-8.742c-.08,0-.141.156-.183.475v.023a1.767,1.767,0,0,0,.049.41c.034.162.077.227.126.2a.829.829,0,0,0,.195-.114.454.454,0,0,0,.176-.283.706.706,0,0,0-.132-.364l-.183-.317Zm11.606.854a2.688,2.688,0,0,1,.9.8,1.52,1.52,0,0,1,.307.921.942.942,0,0,1-.259.689.79.79,0,0,1-.583.222.933.933,0,0,1-.733-.407,4.4,4.4,0,0,0-1.072-1.064,2.124,2.124,0,0,0-1.117-.394,1.827,1.827,0,0,0-.821.192,2.77,2.77,0,0,0-.625.377,1.125,1.125,0,0,1-.379.241c-.112,0-.166-.054-.163-.149a.5.5,0,0,1,.127-.26,4.8,4.8,0,0,1,1.55-1.238,3.578,3.578,0,0,1,1.545-.278A2.794,2.794,0,0,1,1217.271,1186.3Z" fill="#3e3a39"/>
          <path id="パス_334" data-name="パス 334" d="M1241.517,1185.338a.617.617,0,0,1,.27.573q-.019.648-.811.623c-.016,0-.327-.042-.932-.124a39.561,39.561,0,0,0-4.38-.444c-.336-.01-.81-.008-1.417.006q-.48-.015-.495.489-.1,1.774-.129,2.661l-.037,1.247a1.839,1.839,0,0,0,.149.63,9.365,9.365,0,0,1,.594,1.806,7.173,7.173,0,0,1,.188,1.723,5.914,5.914,0,0,1-1.038,3.354,7.046,7.046,0,0,1-2.248,2.081,8.479,8.479,0,0,1-2.333.95,1.074,1.074,0,0,1-.242.041c-.111,0-.166-.045-.164-.125q0-.168.273-.256a6.048,6.048,0,0,0,3.284-2.627,6.862,6.862,0,0,0,.865-2.842c0-.016-.044.01-.134.08s-.217.158-.381.264a1.924,1.924,0,0,1-1.018.378,1.7,1.7,0,0,1-1.2-.528,3.7,3.7,0,0,1-.791-1.213,7.02,7.02,0,0,1-.417-1.333,5.5,5.5,0,0,1-.13-1.276,3.1,3.1,0,0,1,.671-1.913,2.03,2.03,0,0,1,1.739-.752,2.124,2.124,0,0,1,.668.14.591.591,0,0,0,.263.056c.191.006.3-.095.32-.3a15.735,15.735,0,0,0,.231-2.1.468.468,0,0,0-.133-.389.536.536,0,0,0-.4-.108,21.183,21.183,0,0,0-4.917,1.413q-.536.223-.948.355a2.785,2.785,0,0,1-.939.115,2.715,2.715,0,0,1-1.356-.423,4.435,4.435,0,0,1-.937-.8,1.28,1.28,0,0,1-.41-.709c0-.1.06-.142.172-.139a2.476,2.476,0,0,1,.644.14,6.35,6.35,0,0,0,1.242.2,7.729,7.729,0,0,0,1.734-.164c.546-.095,1.348-.224,2.4-.384s2.19-.318,3.412-.474a.471.471,0,0,0,.47-.489c.005-.176,0-.488-.02-.938l-.005-.6a2.921,2.921,0,0,0-.231-1.123,2.063,2.063,0,0,0-.481-.747,3.522,3.522,0,0,0-.34-.275c-.118-.083-.175-.149-.173-.2,0-.112.1-.2.307-.255a1.9,1.9,0,0,1,1.424.139c.678.325,1.012.72,1,1.183a.911.911,0,0,1-.03.215l-.03.167a.566.566,0,0,0,.275.489,16.662,16.662,0,0,0,3.238,1.658,9.728,9.728,0,0,0,1.238.313q.575.1,1.006.139a6.184,6.184,0,0,1,.67.092A2.82,2.82,0,0,1,1241.517,1185.338Zm-9.505,8.3a2.2,2.2,0,0,0,.362-1.334,5.325,5.325,0,0,0-.28-1.809q-.307-.946-1.028-.968a1.2,1.2,0,0,0-1.061.569,2.833,2.833,0,0,0-.444,1.571,2.631,2.631,0,0,0,.48,1.587,1.459,1.459,0,0,0,1.13.767A1.02,1.02,0,0,0,1232.012,1193.636Zm3.791-8.71a1.412,1.412,0,0,0,.337-.037c.073-.023.11-.058.112-.106s-.05-.129-.151-.2a1.29,1.29,0,0,1-.2-.15l-1.315-1a.63.63,0,0,0-.308-.129c-.191-.006-.307.127-.347.4-.021.159-.037.447-.05.863-.01.321.226.463.706.429l.867-.069C1235.534,1184.93,1235.649,1184.93,1235.8,1184.926Z" fill="#3e3a39"/>
          <path id="パス_335" data-name="パス 335" d="M1265.434,1186.059a.616.616,0,0,1,.27.572q-.019.648-.811.624c-.016,0-.327-.042-.932-.125a39.763,39.763,0,0,0-4.38-.443c-.336-.01-.81-.008-1.418.005-.319-.009-.484.153-.494.489q-.1,1.773-.129,2.662l-.037,1.247a1.839,1.839,0,0,0,.149.629,9.458,9.458,0,0,1,.594,1.806,7.173,7.173,0,0,1,.188,1.723,5.922,5.922,0,0,1-1.038,3.354,7.036,7.036,0,0,1-2.248,2.081,8.533,8.533,0,0,1-2.333.951,1,1,0,0,1-.242.04c-.111,0-.166-.045-.164-.124,0-.112.094-.2.273-.257a6.047,6.047,0,0,0,3.284-2.626,6.867,6.867,0,0,0,.865-2.843c0-.016-.044.01-.134.08s-.217.158-.381.265a1.915,1.915,0,0,1-1.018.377,1.705,1.705,0,0,1-1.2-.528,3.7,3.7,0,0,1-.791-1.212,7.059,7.059,0,0,1-.417-1.333,5.5,5.5,0,0,1-.13-1.277,3.1,3.1,0,0,1,.671-1.913,2.032,2.032,0,0,1,1.739-.752,2.124,2.124,0,0,1,.668.14.6.6,0,0,0,.262.057c.192.005.3-.095.321-.3a15.751,15.751,0,0,0,.231-2.107.465.465,0,0,0-.133-.387.537.537,0,0,0-.4-.109,21.2,21.2,0,0,0-4.916,1.413q-.536.225-.948.356a2.813,2.813,0,0,1-.939.115,2.719,2.719,0,0,1-1.356-.425,4.354,4.354,0,0,1-.937-.8,1.271,1.271,0,0,1-.41-.709c0-.095.06-.141.172-.137a2.444,2.444,0,0,1,.643.138,6.4,6.4,0,0,0,1.243.206,7.73,7.73,0,0,0,1.734-.164q.819-.142,2.4-.383t3.411-.474a.471.471,0,0,0,.471-.49c.005-.176,0-.489-.02-.938l-.005-.6a2.925,2.925,0,0,0-.231-1.124,2.087,2.087,0,0,0-.481-.747,3.511,3.511,0,0,0-.34-.274c-.118-.084-.175-.149-.173-.2,0-.113.1-.2.307-.256a1.906,1.906,0,0,1,.59-.077,1.947,1.947,0,0,1,.834.217c.678.324,1.012.718,1,1.182a.92.92,0,0,1-.03.215l-.029.168a.565.565,0,0,0,.273.488,16.829,16.829,0,0,0,3.239,1.659,9.9,9.9,0,0,0,1.238.313c.383.067.718.114,1.006.138a6.464,6.464,0,0,1,.67.092A2.817,2.817,0,0,1,1265.434,1186.059Zm-9.506,8.3a2.191,2.191,0,0,0,.363-1.334,5.307,5.307,0,0,0-.281-1.809q-.306-.945-1.027-.967a1.2,1.2,0,0,0-1.062.568,2.842,2.842,0,0,0-.443,1.572,2.636,2.636,0,0,0,.48,1.587,1.457,1.457,0,0,0,1.13.766A1.014,1.014,0,0,0,1255.928,1194.356Zm3.792-8.71a1.353,1.353,0,0,0,.337-.038c.073-.021.11-.056.112-.1,0-.065-.05-.13-.151-.2a1.342,1.342,0,0,1-.2-.151l-1.315-1a.65.65,0,0,0-.308-.13c-.191-.006-.307.127-.347.4-.021.159-.037.447-.05.863-.01.32.226.463.706.429l.867-.069C1259.451,1185.65,1259.566,1185.65,1259.72,1185.646Z" fill="#3e3a39"/>
          <path id="パス_336" data-name="パス 336" d="M1280.2,1186.995q-.008.264.447.35a8.073,8.073,0,0,1,3,1.123,6.422,6.422,0,0,1,2.19,2.251,5.868,5.868,0,0,1,.756,3.192q-.186,6.165-9.339,7.114l-.745.049c-.112,0-.167-.053-.164-.148,0-.064.067-.118.2-.162a1.708,1.708,0,0,1,.352-.086.859.859,0,0,0,.205-.042,12,12,0,0,0,5.571-2.425,6.02,6.02,0,0,0,2.131-4.618,4.765,4.765,0,0,0-1.226-3.53,5.931,5.931,0,0,0-3.319-1.793l-.12,0a.474.474,0,0,0-.491.369,29.336,29.336,0,0,1-2.14,4.834.641.641,0,0,0-.08.286.428.428,0,0,0,.252.391,3.789,3.789,0,0,1,.706.478.71.71,0,0,1,.225.511.5.5,0,0,1-.191.39.694.694,0,0,1-.474.143,2.678,2.678,0,0,1-1.046-.3.6.6,0,0,0-.262-.079.539.539,0,0,0-.441.251,10.849,10.849,0,0,1-2.327,2.33,3.654,3.654,0,0,1-2.09.85,1.461,1.461,0,0,1-.854-.338,2.287,2.287,0,0,1-.69-.992,4.13,4.13,0,0,1-.239-1.653,7.838,7.838,0,0,1,2.352-5.524.6.6,0,0,0,.205-.426,1.476,1.476,0,0,0-.04-.266l-.2-.605q-.4-1.164-.644-1.761a2.489,2.489,0,0,0-.573-.893,2.527,2.527,0,0,0-.327-.3c-.11-.083-.164-.149-.163-.2,0-.064.051-.094.148-.091a2.549,2.549,0,0,1,.974.317,2.3,2.3,0,0,1,.885.915,11.163,11.163,0,0,1,.763,1.751c.09.212.207.318.351.323a.648.648,0,0,0,.316-.11,11.034,11.034,0,0,1,4.176-1.531.593.593,0,0,0,.518-.489,11.993,11.993,0,0,0,.323-1.935,1.175,1.175,0,0,0-.1-.543,1.34,1.34,0,0,0-.42-.457c-.078-.051-.18-.113-.306-.19s-.188-.145-.186-.209.063-.123.185-.175a1.076,1.076,0,0,1,.447-.071,2.207,2.207,0,0,1,1.448.548,1.546,1.546,0,0,1,.564,1.242,3.3,3.3,0,0,1-.16.86c-.1.317-.163.523-.2.618a2.174,2.174,0,0,0-.106.357Zm-4.7,7.662a.82.82,0,0,0-.3-.393,5.411,5.411,0,0,1-1.024-1.087,7.758,7.758,0,0,1-.889-1.588c-.091-.194-.206-.294-.35-.3a.406.406,0,0,0-.343.2,8.473,8.473,0,0,0-1.031,1.914,6.2,6.2,0,0,0-.409,2.005,2.819,2.819,0,0,0,.239,1.279.828.828,0,0,0,.715.575,2.714,2.714,0,0,0,1.521-.651,8.947,8.947,0,0,0,1.845-1.913Zm.412-1.717a.638.638,0,0,0,.308.13.432.432,0,0,0,.392-.276,26.276,26.276,0,0,0,1.585-3.986.517.517,0,0,0,.03-.167.337.337,0,0,0-.123-.292.534.534,0,0,0-.371-.083,7.89,7.89,0,0,0-3.479,1.551.481.481,0,0,0-.229.378,1.073,1.073,0,0,0,.087.338,5.959,5.959,0,0,0,1.262,1.911Z" fill="#3e3a39"/>
          <path id="パス_337" data-name="パス 337" d="M1199.588,1227.788c0-.112.166-.243.491-.394a24.98,24.98,0,0,0,7.179-4.73,27.825,27.825,0,0,0,4.57-5.457,10.776,10.776,0,0,0,1.654-3.527c.005-.145-.073-.219-.233-.224-.176-.006-.853.047-2.033.155s-2.461.262-3.844.46a36.644,36.644,0,0,0-3.623.684,3.866,3.866,0,0,1-.963.115,1.934,1.934,0,0,1-1.284-.447,2.709,2.709,0,0,1-.586-.846,2.04,2.04,0,0,1-.25-.86.213.213,0,0,1,.247-.233,1.634,1.634,0,0,1,.569.186,4.235,4.235,0,0,0,1.551.359q.552.016,4.279-.16a36.345,36.345,0,0,0,4.405-.348,8.669,8.669,0,0,0,.873-.285,3.481,3.481,0,0,1,1.139-.326,1.788,1.788,0,0,1,.828.386,5.591,5.591,0,0,1,.97.856,1.3,1.3,0,0,1,.419.818.9.9,0,0,1-.17.5,3.668,3.668,0,0,1-.485.538c-.034.047-.153.183-.36.409a4.669,4.669,0,0,0-.564.763,24.619,24.619,0,0,1-3.83,5.216,22.47,22.47,0,0,1-4.575,3.608,42.707,42.707,0,0,1-5.8,2.8,1.261,1.261,0,0,1-.412.107C1199.64,1227.909,1199.585,1227.867,1199.588,1227.788Z" fill="#3e3a39"/>
          <path id="パス_338" data-name="パス 338" d="M1223.539,1225.771a4.358,4.358,0,0,1-.662-.776,1.386,1.386,0,0,1-.282-.572.7.7,0,0,1,.092-.274,1.292,1.292,0,0,0,.12-.392,28.613,28.613,0,0,0,.273-3.474,40.68,40.68,0,0,0-.137-5.046q-.049-.722-.962-.75a1.316,1.316,0,0,1-.262-.031c-.08-.018-.119-.052-.117-.1q.008-.287.373-.408a2.12,2.12,0,0,1,.747-.109,4.577,4.577,0,0,1,2.069.686q.445.3.436.614a1.021,1.021,0,0,1-.234.569,3.65,3.65,0,0,0-.276.472,1.548,1.548,0,0,0-.115.621l-.086,1.269q-.155,2.663-.165,3.069-.034,1.151.012,1.993a1.125,1.125,0,0,0,.074.374.2.2,0,0,0,.2.139,11.806,11.806,0,0,0,2.489-.958,38.359,38.359,0,0,0,4.922-2.746,31.277,31.277,0,0,0,5.218-4.224c.2-.186.344-.278.44-.275.048,0,.071.042.069.122a1,1,0,0,1-.28.5,31.356,31.356,0,0,1-6.382,5.822,45.02,45.02,0,0,1-5.49,3.3,2.731,2.731,0,0,0-.591.462,2.723,2.723,0,0,1-.405.36.648.648,0,0,1-.4.12A1.108,1.108,0,0,1,1223.539,1225.771Z" fill="#3e3a39"/>
          <path id="パス_339" data-name="パス 339" d="M1242.832,1221.383a2.878,2.878,0,0,1-.761-.671,1.349,1.349,0,0,1-.32-.9,1.389,1.389,0,0,1,.125-.524c.076-.174.155-.26.234-.258a.573.573,0,0,1,.212.127,1.8,1.8,0,0,0,.495.3,7.021,7.021,0,0,0,2.151.377q1.031.008,3.145.011t3.6,0q3.194-.024,5.308-.08c.817-.023,1.457-.029,1.921-.014a5.027,5.027,0,0,1,1.459.212.707.707,0,0,1,.505.759q-.018.576-1,.642c-.321.023-.76.026-1.32.008l-6.962-.041q-1.848-.008-4.024.047a22.122,22.122,0,0,0-2.827.18,5.12,5.12,0,0,1-.961.089A1.747,1.747,0,0,1,1242.832,1221.383Z" fill="#3e3a39"/>
          <path id="パス_340" data-name="パス 340" d="M1263.432,1226.253c0-.128.127-.261.371-.4a23.45,23.45,0,0,0,3.825-2.622,19.793,19.793,0,0,0,2.735-2.738,3.993,3.993,0,0,0,1.031-1.927q.01-.383-.508-.663l-.238-.1a.885.885,0,0,1-.211-.126.2.2,0,0,1-.093-.148c0-.111.118-.179.343-.2a6.163,6.163,0,0,1,.841-.022,2.686,2.686,0,0,1,1.665.53,1.593,1.593,0,0,1,.73,1.27.973.973,0,0,1-.234.593,21.912,21.912,0,0,1-4.263,3.63,28.836,28.836,0,0,1-5.491,2.944,1.151,1.151,0,0,1-.339.086C1263.483,1226.351,1263.43,1226.316,1263.432,1226.253Zm19.476-.963a2.914,2.914,0,0,1-.382-.815,15.824,15.824,0,0,0-1.781-3.476,15.345,15.345,0,0,0-3.1-3.347q-.21-.174-.207-.294c0-.08.051-.119.148-.116a.611.611,0,0,1,.262.08,15.456,15.456,0,0,1,2.862,1.827,18.086,18.086,0,0,1,2.766,2.6,3.674,3.674,0,0,1,1.11,2.206,1.785,1.785,0,0,1-.394,1.153,1.022,1.022,0,0,1-.805.419A.6.6,0,0,1,1282.908,1225.29Zm-.344-6.89a4.383,4.383,0,0,0-.663-1.135,3.518,3.518,0,0,0-1.03-.836,2.326,2.326,0,0,0-.248-.139.944.944,0,0,1-.259-.176.237.237,0,0,1-.079-.159c0-.111.116-.165.341-.158a6.147,6.147,0,0,1,1.276.266,5.335,5.335,0,0,1,1.657.807,1.6,1.6,0,0,1,.739,1.391.762.762,0,0,1-.259.6.86.86,0,0,1-.582.187A.956.956,0,0,1,1282.564,1218.4Zm2.76-1.585a1.365,1.365,0,0,1-.394-.431,6.521,6.521,0,0,0-.728-.971,5.72,5.72,0,0,0-.926-.761,3.124,3.124,0,0,0-.33-.177,1.308,1.308,0,0,1-.27-.164c-.071-.058-.106-.112-.1-.16q.006-.192.487-.177a5.591,5.591,0,0,1,1.288.255,4.55,4.55,0,0,1,1.513.765,1.543,1.543,0,0,1,.657,1.317.609.609,0,0,1-.245.533.861.861,0,0,1-.5.141A.842.842,0,0,1,1285.324,1216.815Z" fill="#3e3a39"/>
          <path id="パス_341" data-name="パス 341" d="M1291.074,1222.835a2.859,2.859,0,0,1-.761-.671,1.346,1.346,0,0,1-.321-.9,1.4,1.4,0,0,1,.125-.525c.076-.173.155-.26.236-.257a.58.58,0,0,1,.211.127,1.805,1.805,0,0,0,.5.3,6.936,6.936,0,0,0,2.15.377c.686,0,1.736.008,3.144.011s2.61,0,3.6,0q3.194-.024,5.308-.08,1.226-.036,1.921-.015a5.03,5.03,0,0,1,1.46.213.706.706,0,0,1,.5.759q-.017.576-1,.641c-.321.024-.761.026-1.321.009l-6.961-.041q-1.85-.008-4.024.047a22.344,22.344,0,0,0-2.826.179,5.079,5.079,0,0,1-.963.09A1.745,1.745,0,0,1,1291.074,1222.835Z" fill="#3e3a39"/>
        </g>
      </g>
      <g id="グループ_250" data-name="グループ 250">
        <path id="パス_342" data-name="パス 342" d="M1198.813,1121.958l.931-.638a.482.482,0,0,1,.3-.094.445.445,0,0,1,.263.1l5.651,4.578c.1.083.207.176.314.279s.217.21.331.325c-.064-.15-.124-.294-.179-.434a3.676,3.676,0,0,1-.137-.4l-1.995-7.084a.483.483,0,0,1,.011-.275.451.451,0,0,1,.186-.252l.325-.221a.464.464,0,0,1,.3-.094.5.5,0,0,1,.267.1l5.877,4.424a6.973,6.973,0,0,1,.655.56c-.064-.143-.126-.278-.185-.407a2.748,2.748,0,0,1-.148-.374l-2.227-6.927a.425.425,0,0,1,0-.273.461.461,0,0,1,.19-.249l.871-.6,3.093,10.042-1.006.689-6.422-4.873a4.539,4.539,0,0,1-.4-.337l.1.26c.033.083.058.16.079.232l2.218,7.754-1.005.689Z" fill="#ccb48f"/>
        <path id="パス_343" data-name="パス 343" d="M1226.287,1117.709l-1.246.557-1.862-4.167-4.934,2.2,1.862,4.167-1.246.556-4.092-9.158,1.245-.556,1.825,4.083,4.934-2.2-1.825-4.084,1.245-.556Z" fill="#ccb48f"/>
        <path id="パス_344" data-name="パス 344" d="M1232.08,1115.84l-1.3.4-2.949-9.588,1.3-.4Z" fill="#ccb48f"/>
        <path id="パス_345" data-name="パス 345" d="M1243.249,1111.226a.279.279,0,0,1,.216.052l.627.476a4.276,4.276,0,0,1-1.267,1.365,5.1,5.1,0,0,1-2.012.776,4.983,4.983,0,0,1-2-.014,4.3,4.3,0,0,1-1.669-.76,4.756,4.756,0,0,1-1.244-1.419,6.051,6.051,0,0,1-.713-1.983,5.685,5.685,0,0,1-.014-2.112,4.742,4.742,0,0,1,.722-1.783,4.607,4.607,0,0,1,1.376-1.324,5.417,5.417,0,0,1,1.945-.739,4.58,4.58,0,0,1,3.509.651l-.322.692a.458.458,0,0,1-.09.134.311.311,0,0,1-.17.078.372.372,0,0,1-.2-.03c-.073-.032-.163-.071-.265-.119s-.226-.1-.362-.146a2.76,2.76,0,0,0-.479-.126,3.572,3.572,0,0,0-.622-.053,4.13,4.13,0,0,0-.79.078,3.816,3.816,0,0,0-1.4.537,3.317,3.317,0,0,0-.991.983,3.586,3.586,0,0,0-.514,1.362,4.749,4.749,0,0,0,.032,1.667,4.846,4.846,0,0,0,.568,1.6,3.692,3.692,0,0,0,.947,1.089,3.114,3.114,0,0,0,1.224.562,3.554,3.554,0,0,0,1.4.013,5.558,5.558,0,0,0,.782-.2,3.464,3.464,0,0,0,.621-.281,2.883,2.883,0,0,0,.506-.381,4.422,4.422,0,0,0,.445-.5A.353.353,0,0,1,1243.249,1111.226Z" fill="#ccb48f"/>
        <path id="パス_346" data-name="パス 346" d="M1256.119,1112.535l-1.364.038-.127-4.562-5.4.15.127,4.563-1.365.038-.279-10.028,1.365-.037.125,4.471,5.4-.15-.125-4.472,1.364-.038Z" fill="#ccb48f"/>
        <path id="パス_347" data-name="パス 347" d="M1273.4,1104.6l-.194,1.089-4.74-.853-.622,3.451,4.051.729-.2,1.089-4.05-.73-.763,4.244-1.344-.242,1.776-9.872Z" fill="#ccb48f"/>
        <path id="パス_348" data-name="パス 348" d="M1276.925,1114.754l4.144,1.289-.339,1.09-5.441-1.694,2.98-9.577,1.3.4Z" fill="#ccb48f"/>
        <path id="パス_349" data-name="パス 349" d="M1291.46,1121.848l-.951-.444a.441.441,0,0,1-.229-.206.545.545,0,0,1-.055-.28l.171-2.592-4.082-1.9-1.872,1.8a.532.532,0,0,1-.247.132.431.431,0,0,1-.306-.035l-.954-.442,7.865-7.406,1.251.582Zm-4.391-6.148,3.4,1.578.292-4.364a7.8,7.8,0,0,1,.124-.984q-.189.228-.359.416c-.113.125-.215.233-.308.323Z" fill="#ccb48f"/>
        <path id="パス_350" data-name="パス 350" d="M1297.856,1113.944l.912.587a.445.445,0,0,1,.2.235.55.55,0,0,1,.017.285l-1.437,7.487a4.664,4.664,0,0,1-.131.532c-.054.187-.114.377-.18.575q.215-.22.428-.416a4.322,4.322,0,0,1,.424-.343l6.2-4.431a.578.578,0,0,1,.262-.095.429.429,0,0,1,.3.074l.921.589-8.861,6.233-1.03-.661Z" fill="#ccb48f"/>
        <path id="パス_351" data-name="パス 351" d="M1312.86,1131.565a5.8,5.8,0,0,1-1.634,1.316,4.771,4.771,0,0,1-1.83.549,4.529,4.529,0,0,1-1.871-.244,5.627,5.627,0,0,1-3.025-2.669,4.523,4.523,0,0,1-.475-1.823,4.727,4.727,0,0,1,.316-1.881,6.153,6.153,0,0,1,2.735-3.1,4.778,4.778,0,0,1,1.831-.552,4.533,4.533,0,0,1,1.871.237,5.565,5.565,0,0,1,3.028,2.669,4.528,4.528,0,0,1,.472,1.83,4.756,4.756,0,0,1-.318,1.884A5.778,5.778,0,0,1,1312.86,1131.565Zm-1.046-.921a5.071,5.071,0,0,0,.909-1.411,3.5,3.5,0,0,0,.287-1.405,3.125,3.125,0,0,0-.325-1.326,4.07,4.07,0,0,0-2.2-1.939,3.122,3.122,0,0,0-1.36-.157,3.47,3.47,0,0,0-1.359.457,5.085,5.085,0,0,0-1.286,1.078,5.023,5.023,0,0,0-.905,1.409,3.461,3.461,0,0,0-.282,1.4,3.084,3.084,0,0,0,.33,1.325,3.815,3.815,0,0,0,.919,1.17,3.87,3.87,0,0,0,1.28.77,3.075,3.075,0,0,0,1.355.158,3.533,3.533,0,0,0,1.355-.458A5.054,5.054,0,0,0,1311.814,1130.644Z" fill="#ccb48f"/>
        <path id="パス_352" data-name="パス 352" d="M1316.209,1136.529l-3.212,2.685-.865-1.037,7.7-6.433,1.818,2.176a6.2,6.2,0,0,1,.908,1.386,3.152,3.152,0,0,1,.306,1.235,2.228,2.228,0,0,1-.245,1.076,2.915,2.915,0,0,1-.746.9,2.84,2.84,0,0,1-.869.509,2.622,2.622,0,0,1-.948.158,2.876,2.876,0,0,1-.981-.194,3.9,3.9,0,0,1-.967-.546,1.4,1.4,0,0,1-.041.617l-1.179,4.8-.772-.924a.593.593,0,0,1-.131-.6l1.082-4.3a.75.75,0,0,0,.018-.354.93.93,0,0,0-.212-.37Zm.758-.633.911,1.09a3.455,3.455,0,0,0,.78.712,2.154,2.154,0,0,0,.8.32,1.7,1.7,0,0,0,.775-.05,2.045,2.045,0,0,0,.718-.4,1.6,1.6,0,0,0,.657-1.32,2.861,2.861,0,0,0-.78-1.643l-.952-1.138Z" fill="#ccb48f"/>
        <path id="パス_353" data-name="パス 353" d="M1330.032,1156.275a5.652,5.652,0,0,1-1.984.635,4.534,4.534,0,0,1-1.869-.16,4.465,4.465,0,0,1-1.624-.91,5.426,5.426,0,0,1-1.256-1.619l-1.74-3.324,8.888-4.652,1.74,3.324a5.462,5.462,0,0,1,.615,1.953,4.455,4.455,0,0,1-.182,1.858,4.575,4.575,0,0,1-.936,1.628A5.651,5.651,0,0,1,1330.032,1156.275Zm-.647-1.234a5.02,5.02,0,0,0,1.347-.989,3.5,3.5,0,0,0,.761-1.2,3.052,3.052,0,0,0,.162-1.35,3.879,3.879,0,0,0-.442-1.419l-1.109-2.115-6.939,3.633,1.107,2.115a3.866,3.866,0,0,0,.915,1.172,3.065,3.065,0,0,0,1.2.637,3.426,3.426,0,0,0,1.418.063A5.031,5.031,0,0,0,1329.385,1155.041Z" fill="#ccb48f"/>
        <path id="パス_354" data-name="パス 354" d="M1334.684,1169.244a5.788,5.788,0,0,1-2.077.311,4.737,4.737,0,0,1-1.854-.448,4.5,4.5,0,0,1-1.492-1.154,5.626,5.626,0,0,1-1.268-3.832,4.5,4.5,0,0,1,.511-1.812,4.7,4.7,0,0,1,1.222-1.466,6.168,6.168,0,0,1,3.927-1.3,4.793,4.793,0,0,1,1.859.447,4.554,4.554,0,0,1,1.5,1.149,5.581,5.581,0,0,1,1.266,3.831,4.49,4.49,0,0,1-.514,1.818,4.758,4.758,0,0,1-1.226,1.468A5.779,5.779,0,0,1,1334.684,1169.244Zm-.438-1.322a5.056,5.056,0,0,0,1.5-.761,3.494,3.494,0,0,0,.955-1.067,3.081,3.081,0,0,0,.39-1.309,3.8,3.8,0,0,0-.2-1.481,3.767,3.767,0,0,0-.719-1.3,3.149,3.149,0,0,0-1.093-.821,3.485,3.485,0,0,0-1.406-.291,5.135,5.135,0,0,0-1.654.282,5.039,5.039,0,0,0-1.492.759,3.48,3.48,0,0,0-.951,1.07,3.1,3.1,0,0,0-.384,1.311,3.814,3.814,0,0,0,.2,1.474,3.894,3.894,0,0,0,.717,1.311,3.072,3.072,0,0,0,1.091.819,3.521,3.521,0,0,0,1.4.289A5.084,5.084,0,0,0,1334.246,1167.922Z" fill="#ccb48f"/>
        <path id="パス_355" data-name="パス 355" d="M1335.93,1182.9l-3.97.4-.135-1.343,3.968-.4,5.642-4.266.119,1.185a.419.419,0,0,1-.062.294.879.879,0,0,1-.2.2l-3.648,2.676a4.855,4.855,0,0,1-.436.281c-.139.077-.273.148-.407.214.148.036.3.077.448.123a3.946,3.946,0,0,1,.477.184l4.109,1.884a.91.91,0,0,1,.23.149.392.392,0,0,1,.128.272l.123,1.2Z" fill="#ccb48f"/>
        <path id="パス_356" data-name="パス 356" d="M1337,1199.113a5.785,5.785,0,0,1-2.052-.448,4.74,4.74,0,0,1-1.574-1.078,4.482,4.482,0,0,1-.983-1.609,5.617,5.617,0,0,1,.177-4.032,4.532,4.532,0,0,1,1.121-1.513,4.771,4.771,0,0,1,1.664-.936,6.156,6.156,0,0,1,4.133.183,4.778,4.778,0,0,1,1.578,1.079,4.521,4.521,0,0,1,.99,1.6,5.565,5.565,0,0,1-.177,4.032,4.509,4.509,0,0,1-1.129,1.517,4.789,4.789,0,0,1-1.667.936A5.794,5.794,0,0,1,1337,1199.113Zm.06-1.391a5.107,5.107,0,0,0,1.669-.179,3.518,3.518,0,0,0,1.274-.658,3.119,3.119,0,0,0,.828-1.085,4.066,4.066,0,0,0,.129-2.93,3.122,3.122,0,0,0-.731-1.157,3.5,3.5,0,0,0-1.209-.772,5.1,5.1,0,0,0-1.646-.324,5.046,5.046,0,0,0-1.664.179,3.458,3.458,0,0,0-1.271.662,3.092,3.092,0,0,0-.825,1.088,3.826,3.826,0,0,0-.334,1.449,3.867,3.867,0,0,0,.2,1.481,3.076,3.076,0,0,0,.728,1.153,3.494,3.494,0,0,0,1.207.768A5.084,5.084,0,0,0,1337.061,1197.722Z" fill="#ccb48f"/>
        <path id="パス_357" data-name="パス 357" d="M1331.733,1206.568a2.821,2.821,0,0,0-.017,1.133,2.324,2.324,0,0,0,.409.931,2.563,2.563,0,0,0,.779.688,3.551,3.551,0,0,0,1.1.408l5.972,1.225-.272,1.324-5.972-1.226a4.582,4.582,0,0,1-1.522-.594,3.762,3.762,0,0,1-1.1-1.033,3.644,3.644,0,0,1-.581-1.4,4.67,4.67,0,0,1,.67-3.264,3.654,3.654,0,0,1,1.087-1.064,3.723,3.723,0,0,1,1.418-.519,4.533,4.533,0,0,1,1.632.053l5.973,1.225-.271,1.323-5.966-1.224a3.589,3.589,0,0,0-1.168-.057,2.565,2.565,0,0,0-.988.325,2.373,2.373,0,0,0-.747.7A2.787,2.787,0,0,0,1331.733,1206.568Z" fill="#ccb48f"/>
        <path id="パス_358" data-name="パス 358" d="M1327.433,1220.846l-1.712,3.988-1.048-.45,2.246-5.237,9.219,3.957-.536,1.247Z" fill="#ccb48f"/>
        <path id="パス_359" data-name="パス 359" d="M1322.167,1229.025l.66-1.185,8.767,4.875-.66,1.186Z" fill="#ccb48f"/>
        <path id="パス_360" data-name="パス 360" d="M1323.456,1237.641l-.3.415a1.1,1.1,0,0,0-.192.382.8.8,0,0,0,.011.375l1.12,4.917a1.057,1.057,0,0,1,.028.387.8.8,0,0,1-.155.341l-.674.938-1.276-5.625a3.472,3.472,0,0,1-.061-.383,1.212,1.212,0,0,1,.015-.331.988.988,0,0,1-.355.168,2.807,2.807,0,0,1-.435.066l-6.189.466.688-.955a.943.943,0,0,1,.147-.17.659.659,0,0,1,.138-.095.467.467,0,0,1,.145-.046,1.6,1.6,0,0,1,.161-.021l5.258-.489a1.969,1.969,0,0,0,.2-.033.632.632,0,0,0,.172-.066.679.679,0,0,0,.168-.13,2.182,2.182,0,0,0,.18-.22l.359-.5-3.728-2.68.788-1.1,8.145,5.855-.789,1.1Z" fill="#ccb48f"/>
        <path id="パス_361" data-name="パス 361" d="M1315.76,1253.653l-.8-.762,3.323-3.487-2.411-2.3-2.69,2.823-.77-.735,2.69-2.822-2.479-2.361-3.323,3.486-.8-.763,4.265-4.474,7.261,6.92Z" fill="#ccb48f"/>
        <path id="パス_362" data-name="パス 362" d="M1305.688,1250.252a.889.889,0,0,1,.167.306.854.854,0,0,1,.041.331.864.864,0,0,1-.091.322.877.877,0,0,1-.219.274.831.831,0,0,1-.308.165.906.906,0,0,1-.337.036.881.881,0,0,1-.322-.1.9.9,0,0,1-.27-.221.91.91,0,0,1-.171-.308.869.869,0,0,1-.035-.331.844.844,0,0,1,.1-.322.911.911,0,0,1,.222-.271.884.884,0,0,1,.306-.168.8.8,0,0,1,.331-.035.86.86,0,0,1,.317.095A.875.875,0,0,1,1305.688,1250.252Zm6.413,5.541a4.149,4.149,0,0,1-.122.6,3.408,3.408,0,0,1-.233.615,3.492,3.492,0,0,1-.923,1.162,3.165,3.165,0,0,1-.889.534,2.469,2.469,0,0,1-.917.173,2.1,2.1,0,0,1-.872-.2,2.2,2.2,0,0,1-.756-.6,2.4,2.4,0,0,1-.467-.806,2.541,2.541,0,0,1-.127-.773,3.032,3.032,0,0,1,.083-.726c.055-.232.1-.45.152-.652a3.5,3.5,0,0,0,.086-.563.733.733,0,0,0-.11-.456l-.591-.9.656-.547.81.838.049.059a.889.889,0,0,1,.213.5,2.163,2.163,0,0,1-.033.583q-.057.307-.141.638a4.225,4.225,0,0,0-.115.67,2.206,2.206,0,0,0,.045.678,1.6,1.6,0,0,0,.346.66,1.235,1.235,0,0,0,.442.343,1.262,1.262,0,0,0,.513.113,1.421,1.421,0,0,0,.536-.1,1.888,1.888,0,0,0,.513-.31,2.235,2.235,0,0,0,.495-.549,2.766,2.766,0,0,0,.246-.507,2.933,2.933,0,0,0,.113-.4.386.386,0,0,1,.1-.218.308.308,0,0,1,.314-.051Z" fill="#ccb48f"/>
      </g>
    </g>
    <g id="グループ_254" data-name="グループ 254" transform="translate(0 -169.045)" style="mix-blend-mode: multiply;isolation: isolate">
      <path id="線_11" data-name="線 11" d="M0,80.5A.5.5,0,0,1-.5,80V0A.5.5,0,0,1,0-.5.5.5,0,0,1,.5,0V80A.5.5,0,0,1,0,80.5Z" transform="translate(206.5 4142.5)" fill="#3e3a39"/>
      <path id="パス_363" data-name="パス 363" d="M2726.7,4247.045l-.236-.123-9.992-5.218a.5.5,0,0,1,.463-.887l9.756,5.095,9.369-5.091a.5.5,0,1,1,.478.879Z" transform="translate(-2520.208 -23.979)" fill="#3e3a39"/>
    </g>
  </g>
</svg>
