<svg xmlns="http://www.w3.org/2000/svg" width="12" height="103.331" viewBox="0 0 12 103.331">
  <g id="page-top" transform="translate(-376 -7660.669)">
    <text id="PAGE_TOP" data-name="PAGE TOP" transform="translate(378 7708) rotate(90)" fill="#3e3a39" font-size="10" font-family="Lato-Regular, Lato" letter-spacing="0.12em"><tspan x="0" y="0">PAGE TOP</tspan></text>
    <g id="グループ_323" data-name="グループ 323" transform="translate(25.5 43)">
      <path id="線_15" data-name="線 15" d="M0,40a.5.5,0,0,1-.5-.5V0A.5.5,0,0,1,0-.5.5.5,0,0,1,.5,0V39.5A.5.5,0,0,1,0,40Z" transform="translate(356.5 7657.75) rotate(180)" fill="#3e3a39"/>
      <path id="パス_405" data-name="パス 405" d="M2720.792,4244.208l-4.335-2.515a.5.5,0,1,1,.5-.865l3.823,2.218,3.667-2.213a.5.5,0,0,1,.517.856Z" transform="translate(3077.208 11861.878) rotate(180)" fill="#3e3a39"/>
    </g>
  </g>
</svg>
