<svg xmlns="http://www.w3.org/2000/svg" width="117.429" height="43.315" viewBox="0 0 117.429 43.315">
  <g id="point-3" transform="translate(-216 -2251.76)">
    <g id="グループ_200" data-name="グループ 200" transform="translate(-395.136 1826.978)">
      <g id="グループ_198" data-name="グループ 198">
        <path id="パス_281" data-name="パス 281" d="M682.245,427.3v-.06c0-.24.42-.24.661-.24a10.823,10.823,0,0,1,2.219.3c.061,0,.12.24.3.3a28.7,28.7,0,0,1,4.92,1.439c.481.24.66.9,1.2.9a.459.459,0,0,0,.241-.06c2.159,3.66,5.459,4.08,5.459,9.84-.54,3.66-3.12,5.34-4.62,8.04-1.74.42-2.1,2.279-4.32,2.279-.96,1.32-2.88,1.561-3.72,2.88-3.359.6-6.359,2.94-10.739,2.94-.9,0-1.8-.12-2.7-.12a8.862,8.862,0,0,0-1.26.06v-.06c0-.179-.18-.179-.3-.24-2.219-.3-4.2-2.7-5.16-4.56,0-.959-.359-1.139-.359-1.86,0-1.5.3-2.7.359-4.2a35.038,35.038,0,0,0,1.68-3.721c1.02-.779,1.44-2.1,2.04-3.179.96-.84,1.44-2.041,2.28-2.88.72-1.08,1.86-1.62,2.34-2.88.96-.06,1.38-1.02,1.979-1.44.721-.54,1.621-.66,2.041-1.44C678.886,428.922,680.146,427.662,682.245,427.3Zm-2.879,3.48c-.48.9-1.56,1.02-2.281,1.741-.9.839-1.319,2.039-2.34,2.878a11.648,11.648,0,0,0-1.979.841,16.107,16.107,0,0,1-1.74,2.579c-1.8,2.7-3.6,5.281-4.32,8.941.42,4.2,2.76,5.279,6.48,5.279a9.155,9.155,0,0,0,4.439-.96c5.46-.66,7.861-2.88,11.281-4.92,1.439-.72,2.159-2.22,3.719-2.88a5.05,5.05,0,0,1,1.44-2.279c.48-.841.54-1.86,1.14-2.58a15.121,15.121,0,0,0-1.44-4.021c-2.46-1.919-4.02-4.679-7.739-5.219-1.021.66-.781,2.52-2.34,2.58a.748.748,0,0,1-.061-.36c0-.48.12-1.02.12-1.5s-.12-.72-.6-.72C681.766,430.242,680.925,430.782,679.366,430.782Z"/>
        <path id="パス_282" data-name="パス 282" d="M723.344,438.821c0-.059,1.8.9,1.981.9.24.6,1.5.9,1.5,1.26,0,.12-.061.3-.061.419,0,.061,0,.061.061.061.12,0,.3-.061.42-.061.419,0,.179,1.441.959,1.5a8.778,8.778,0,0,1,.18,2.1c0,1.021-.12,2.04-.18,3.36-.66,1.621-2.28,2.94-2.28,3.48v.24c-.42.24-.9.42-.9,1.14-1.681,1.08-2.64,3-4.021,4.32-.719.72-1.859,1.02-2.279,2.04a8.116,8.116,0,0,0-3.48,2.04c-3.3.48-5.879,1.92-10.259,1.92a23.349,23.349,0,0,1-3-.24,3.328,3.328,0,0,0-.72-.24h-.421c-.479-.661-4.2-1.98-4.2-6.66,0-1.44,1.019-3.9,2.519-3.9.241,0,.54.061.54.481,0,1.379-.9,1.859-.9,3.3,0,2.28,2.76,2.88,4.38,3.9a14.6,14.6,0,0,0,1.619.06,25.59,25.59,0,0,0,9.6-1.8c2.759-1.68,10.859-8.04,10.859-12.9a3.854,3.854,0,0,0-1.38-2.939,2.96,2.96,0,0,1-.72.059c-1.08,0-2.1-.359-3-.359-1.859,0-4.619.84-7.8,2.58h-.3c-.42,0-.9.059-1.32.059a1.59,1.59,0,0,1-1.26-.36v-.18c0-.419-.36-.479-.36-.96a.778.778,0,0,0,0-.6c0-.66,2.82-2.1,3.54-2.28a11.453,11.453,0,0,1,4.32-1.44c3.78-1.56,8.7-5.58,8.7-8.7,0-.66-.66-1.92-1.021-1.92-.179,0-.359.061-.54.061-.359,0-.6-.661-.78-.661a18.42,18.42,0,0,0-3.18-.3,15.818,15.818,0,0,0-7.5,2.339c-1.02.48-3.48,1.5-3.48,2.16,0,.9.66,1.08.66,1.86,0,.84-.9.84-1.38.84-1.38,0-3-1.2-3-2.34,0-2.1,1.441-2.7,2.04-4.26h.18a1.437,1.437,0,0,0,1.261-.6c1.439-.54,3.239-.781,4.319-1.741,2.82-.3,5.22-1.08,8.1-1.08a24.208,24.208,0,0,1,2.82.241c1.079.12,1.2,1.019,2.279,1.139a4.131,4.131,0,0,1,2.1,4.14c0,3.12-2.28,4.32-2.941,6.54A4.377,4.377,0,0,0,723.344,438.821Z"/>
      </g>
      <g id="グループ_199" data-name="グループ 199">
        <path id="パス_283" data-name="パス 283" d="M636.963,448.716c.047,0-1.416,1.583-1.44,1.583-.335.145-4.318,2.015-4.365,2.159a1.937,1.937,0,0,0-1.031.576,22.489,22.489,0,0,0-2.135,1.223,3.175,3.175,0,0,0-.672.24c-.048.288-.648.1-.72.36h-.815a4.49,4.49,0,0,1-1.271-.12,8.639,8.639,0,0,1-1.272-2.063c-.576.624-2.351,3.406-2.879,3.573.1.362-.24.458-.215.793-.648.36-2.3,3.239-2.878,4.03a.34.34,0,0,0-.241.359c-.311.481-.743.863-1.031,1.367-.647,1.08-3.166,5.3-4.51,5.3h-.095c-.384-.432-.216-1.51-.241-2.062a10.351,10.351,0,0,0,.6-1.848c.265-.168.049-.67.336-.815,0-.263.24-.431.24-.7l-.024-.217c.312-.072.264-.527.576-.576a4.711,4.711,0,0,1,1.056-2.062c-.288-.742,3.213-4.725,3.549-5.66a28.433,28.433,0,0,0,2.087-2.064c.409-.5,3.166-3.07,3.67-3.118.215-.648,4.461-3.118,5.3-3.118.768,0,1.127.528,1.607,1.055a.471.471,0,0,0,.12.456v.1c0,.288-.12.552-.12.839l.12.217v.239a12.5,12.5,0,0,1-.336,2.519.267.267,0,0,0,.168.072,58.378,58.378,0,0,0,6.07-2.687Zm-14.512,1.776c-.24.191-.361.455-.7.455-.143.551-.742.7-1.031,1.151-.5.265-.67.864-1.151,1.151-.312.025-.216.481-.455.577-.072.311-.48.311-.48.7-.408.048-.7,1.008-1.152,1.151-.024.048-1.678,2.447-1.823,2.64-.168.6-.767.838-.815,1.51-.432.384-.48.984-.911,1.367v.576c-.361.24-.432.719-.7,1.031a3.143,3.143,0,0,1-.359,1.391c.12.361-.144.336-.216.576-.048.024-.12.049-.12.1,0,.168.168.289.168.431a.337.337,0,0,1-.048.168c.407-.1.552-.478.7-.814a1.512,1.512,0,0,0,.672-.912c.5-.336.6-1.031,1.056-1.391v-.217c.168-.31.479-.742.671-1.054l.24-.1c.1-.144-.072-.5.24-.48.432-.719,1.032-1.344,1.487-2.063a.457.457,0,0,1,.336-.455c.144-.217.1-.48.24-.7h.24v-.239c.887-1.056,1.535-2.639,2.639-3.455.023-.455.478-.623.574-1.031a6.826,6.826,0,0,0,1.176-2.11c0-.072-.024-.1-.143-.072A.578.578,0,0,1,622.451,450.492Zm5.4-3.454c-.024.143-.168.215-.217.335-.574-.072-.719.48-1.272.456a2.97,2.97,0,0,1-.886.935,9.3,9.3,0,0,1-1.127,2.3,1.571,1.571,0,0,0-.408.792c.552.359.72,1.319,1.558,1.319.625,0,1.32-.408,2.039-.408-.023-.264.408-.384.6-.456a6.575,6.575,0,0,0,1.056-3.6,3.375,3.375,0,0,0-.289-1.463,2.522,2.522,0,0,0-.935-.215Z" fill="#ccc"/>
        <path id="パス_284" data-name="パス 284" d="M635.027,449.34a6.024,6.024,0,0,1,.577-.456c.7-.1.982-.6,1.6-.792a9.682,9.682,0,0,0,.936-1.054,9.573,9.573,0,0,1,1.824-.457c.383.289,1.2.6,1.176,1.272a4.987,4.987,0,0,1,.287,1.247c.023.048.144.1.336.048.336-.072.023.024.359-.1a1.732,1.732,0,0,1,.984-.048,2.643,2.643,0,0,1-.576,1.007c-.049.025-.144.049-.336.12-.384.145-.144.025-.5.168-.382.145-.431.193-.431.216a7.1,7.1,0,0,1-1.391,2.064c-.144.143-.744.479-.672.695-.289.048-.191.264-.48.575a12.777,12.777,0,0,1-2.758,1.728,6.264,6.264,0,0,1-2.543-.121,4.717,4.717,0,0,1-.24-2.182c.121-.264.217-.576.359-.816.049-.1.289-.144.336-.24.1-.143.049-.311.121-.455a5.5,5.5,0,0,1,.791-1.439A5.368,5.368,0,0,0,635.027,449.34Zm1.272,1.391c-.289.024-.336.288-.457.456-.479.6-.815,1.344-1.27,1.847,0,.5-.336.671-.24,1.271h1.176a4.7,4.7,0,0,0,1.15-.575c.1-.1.1-.049.24-.12.36-.216.577-.624,1.032-.7a7.13,7.13,0,0,1,.7-.792,3.731,3.731,0,0,1,.791-.7c.168-.288.361-.288.361-.672a4.022,4.022,0,0,1-1.632.312c-.168-.144-.5-.1-.815-.1-.312-.192-.527-.479-.912-.576C636.4,450.539,636.25,450.539,636.3,450.731Zm2.879-2.3a1.086,1.086,0,0,1-.817.456c-.072.24-.648.576-.336.816.024-.192.168,0,.12.215a4.6,4.6,0,0,0,2.087-.335c-.048-.456.1-1.1-.119-1.391a4.465,4.465,0,0,0-.816-.1C639.273,448.237,639.129,448.237,639.178,448.428Z" fill="#ccc"/>
        <path id="パス_285" data-name="パス 285" d="M647.242,454.089c-.049-.168-.793.193-.816.336-.576.312-1.344.432-1.967.7-.119.263-.336.047-.576.12-.047.024-.287.215-.336.24-.6.1-1.223-.025-1.727.1-.072-.312-.478-.288-.455-.672a1.822,1.822,0,0,1,.073-1.056,6.309,6.309,0,0,1,1.2-1.727c.742-.624,1.582-2.086,2.375-2.662.07-.264.336-.36.574-.456.025-.336.361-.336.457-.576a5.4,5.4,0,0,0,.574-.479c.217-.1.145-.456.576-.336.481-.048.313.528.577.7-.122.72-.84.84-1.032,1.487-.6.216-.72.936-1.175,1.272-.6.24-1.151,1.415-1.68,1.751-.287.5-.936.672-1.031,1.391.48.312,1.2-.1,1.511-.36a5.632,5.632,0,0,0,2.184-.791c.623-.336,1.2-.6,1.822-.96.481-.191.481-.527.887-.768.5-.143.984-.575,1.584-.623.264.744-.168,1.463-1.248,2.015-.168.24-.551.359-.742.576C648.537,453.658,647.506,453.585,647.242,454.089Zm2.95-10.186a4.573,4.573,0,0,1,.359,1.727c-.311.408-1.127.192-1.51,0C649.016,444.646,649.016,443.687,650.192,443.9Z" fill="#ccc"/>
        <path id="パス_286" data-name="パス 286" d="M660.51,453.178c-.408.144-.5.336-1.151.623-.408.361-.625.265-1.056.6-.887.624-1.99.7-2.926,1.271-.672.025-1.559.312-2.086-.239a2.494,2.494,0,0,1,.359-1.367c.024-.049-.048-.217,0-.24.12-.1.024-.193.12-.336.023-.073.168-.025.216-.12a3.8,3.8,0,0,1,.241-.456c.07-.12.238-.216.334-.36.025-.023-.024-.191,0-.216a1.093,1.093,0,0,0,.24-.24c.24-.335.984-1.751,1.271-2.278a17.524,17.524,0,0,0-3.765,2.543,4.039,4.039,0,0,0-.719.718c-.529.336-.7.96-1.2,1.32-.385.024-.336.5-.7.576-.238.168-.431.407-.7.575-.6-.071-.742.313-1.055-.119-.048-.576.264-.792.456-1.151a3.277,3.277,0,0,0,.7-.912,29.254,29.254,0,0,0,1.631-2.855c.1-.407.529-2.423.648-2.71.168-.408.432-.36,1.008-.265.408.385,0,2.5-.289,2.975.168.072,0,.12,0,.24h-.119c.072.336.191-.168.359-.12.217,0,.072-.311.385-.216.119-.311.455-.408.576-.7.264.071.359-.12.574-.24a5.69,5.69,0,0,0,.912-.575c.12-.073.241-.265.36-.336a18.16,18.16,0,0,0,1.967-1.152c.408-.192,1.392-.672,1.966-.36a1.363,1.363,0,0,1-.574,1.728c.047.455-.48.359-.457.815-.336.048-.264.5-.574.575a7.565,7.565,0,0,1-1.393,2.255,3.746,3.746,0,0,1-.478.815c-.336.049-.217.552-.457.7.191.311.431-.265.695-.241.24-.1.625.073.816-.1.313-.025.313-.145.577-.216a9.97,9.97,0,0,0,2.662-1.176,2.413,2.413,0,0,0,.863-.431,3.49,3.49,0,0,0,.6-.528c.191-.072.527-.36.7-.431a3.127,3.127,0,0,1,1.512-.649c.119,1.128-.145,1.584-.5,1.608-.217,0-.6.143-.623.24A10.041,10.041,0,0,1,660.51,453.178Z" fill="#ccc"/>
        <path id="パス_287" data-name="パス 287" d="M670.662,453.73c-.576.264-.84.575-1.222.767a6.631,6.631,0,0,1-1.032.6,2.3,2.3,0,0,0-.5.216c-.144.048-.168.143-.455.216-.144.048-.576.191-.793.239-.359.1.024-.071-.478.048a2.031,2.031,0,0,0-.7.24,7.026,7.026,0,0,0-2.063-.119c-.143-.24-.5-.265-.814-.36-.289-.48-.913-.912-1.032-1.728a4.379,4.379,0,0,1,.239-1.822c.289-.6.457-1.655.793-1.967a25.436,25.436,0,0,1,1.63-2.879c-.168-.191-.576-.168-.935-.12-.264.048-.84.168-1.367.24-.744.072-1.727.432-1.967-.36-.049-.455.6-.239.814-.455.217-.193.744-.1.912-.336,1.2-.072,2.3-.24,3.454-.361a.817.817,0,0,0,.457-.334c.072-.1.046-.241.119-.336.168-.216.672-.6.912-.936.48-.576.84-1.224,1.271-1.848.409-.287.36-1.006,1.151-.911.48,0,.1.816.361,1.031-.576,1.128-1.584,1.8-1.967,3.119.047.24.574.048.815.12,2.662-.239,5.492-.36,8.156-.575.287.143.7.336.406.7-.6.048-1.1.12-1.078.1-.672-.024-1.1.192-1.848.12-.5.288-.959.1-1.607.336a3.314,3.314,0,0,1-1.15-.1c-.791.359-.84-.024-1.631.216a.828.828,0,0,1-.672,0,3.04,3.04,0,0,1-.7.239c-.289.048-.864-.479-1.272,0,.024.24-.408.048-.576.12-.264.672-.887,1.008-1.152,1.728-.575.407-.528,1.1-1.151,1.487.024.312-.312.455-.455.7-.168.241-.168.623-.457.791-.142.912-.527,1.656-.119,2.543a2.3,2.3,0,0,0,.7.456c.1.024.073.1.1.12.768.36,1.824,0,2.662-.12a3.174,3.174,0,0,0,1.32-.528c.024-.023.647-.336.672-.336.192-.1.336-.264.551-.359a6.479,6.479,0,0,1,.7-.12c.121-.264.553-.192.889-.24C670.9,453.249,670.447,453.465,670.662,453.73Z" fill="#ccc"/>
      </g>
    </g>
  </g>
</svg>
