<svg xmlns="http://www.w3.org/2000/svg" width="115.015" height="43.441" viewBox="0 0 115.015 43.441">
  <g id="point-1" transform="translate(-611.136 -287.26)">
    <g id="グループ_192" data-name="グループ 192">
      <path id="パス_267" data-name="パス 267" d="M687.1,289.906v-.06c0-.24.42-.24.66-.24a10.823,10.823,0,0,1,2.22.3c.06,0,.12.24.3.3a28.759,28.759,0,0,1,4.92,1.439c.48.24.66.9,1.2.9a.455.455,0,0,0,.24-.06c2.159,3.66,5.459,4.08,5.459,9.84-.539,3.66-3.119,5.34-4.619,8.04-1.74.42-2.1,2.279-4.321,2.279-.959,1.32-2.879,1.561-3.719,2.88-3.36.6-6.36,2.94-10.739,2.94-.9,0-1.8-.12-2.7-.12a8.84,8.84,0,0,0-1.259.06v-.06c0-.179-.18-.179-.3-.24-2.22-.3-4.2-2.7-5.16-4.56,0-.96-.36-1.139-.36-1.86,0-1.5.3-2.7.36-4.2a35.034,35.034,0,0,0,1.679-3.721c1.021-.779,1.441-2.1,2.04-3.18.96-.839,1.441-2.04,2.281-2.879.719-1.081,1.859-1.621,2.339-2.88.96-.06,1.38-1.02,1.98-1.44.721-.54,1.62-.66,2.04-1.44C683.744,291.526,685,290.266,687.1,289.906Zm-2.88,3.48c-.479.9-1.56,1.02-2.28,1.74-.9.84-1.32,2.04-2.34,2.879a11.623,11.623,0,0,0-1.98.841,16.086,16.086,0,0,1-1.74,2.579c-1.8,2.7-3.6,5.281-4.319,8.941.42,4.2,2.76,5.279,6.479,5.279a9.158,9.158,0,0,0,4.44-.96c5.46-.66,7.86-2.88,11.28-4.92,1.44-.72,2.159-2.22,3.72-2.88a5.043,5.043,0,0,1,1.439-2.279c.481-.841.54-1.86,1.141-2.58a15.121,15.121,0,0,0-1.441-4.021c-2.46-1.92-4.019-4.679-7.739-5.219-1.02.66-.78,2.52-2.34,2.58a.76.76,0,0,1-.06-.36c0-.48.12-1.02.12-1.5s-.12-.72-.6-.72C686.623,292.846,685.783,293.386,684.223,293.386Z" fill="#3e3a39"/>
      <path id="パス_268" data-name="パス 268" d="M726.041,289.006c.54.96-1.08,1.2-1.139,1.98,0,.42-1.14,1.32-1.74,1.74a9.287,9.287,0,0,1-3.18,4.32c.3,1.14-.84.84-.54,2.039a2.127,2.127,0,0,0-1.14,1.141c.06.72-1.14.239-.9,1.14-1.02.42-.6,2.219-1.98,2.28a4.619,4.619,0,0,1-2.04,3.479c.06,1.741-1.559,1.861-1.44,3.72-.84.12-.539,1.38-1.14,1.74a17.813,17.813,0,0,0-1.439,2.581c-.42.9-.361,2.039-1.141,2.639-.06,1.08.181,2.52-.6,2.88-1.8.18-1.8-1.44-1.74-3.18.84-1.98,1.021-4.56,2.58-5.759.12-2.76,2.16-3.6,2.34-6.361,1.021-.059,1.021-1.319,1.441-1.979.479-.781,1.08-1.321,1.439-2.04a3.391,3.391,0,0,1,1.44-2.04,2,2,0,0,1,1.44-1.68c.54-1.98,1.92-3.06,2.88-4.62a15.277,15.277,0,0,0,1.44-2.34c.12-.36.84-.479,1.14-.84.3-.3.24-.84.6-1.139.241-.241.661-.661,1.141-.6.119-.359.48-.42.54-.84.54-.059.659.36,1.2.3C725.982,287.747,725.442,288.886,726.041,289.006Z" fill="#3e3a39"/>
    </g>
    <g id="グループ_193" data-name="グループ 193">
      <path id="パス_269" data-name="パス 269" d="M636.963,311.32c.047,0-1.416,1.583-1.44,1.583-.335.144-4.318,2.014-4.365,2.159a1.929,1.929,0,0,0-1.031.575,22.731,22.731,0,0,0-2.135,1.224,3.12,3.12,0,0,0-.672.24c-.048.287-.648.1-.72.359h-.815a4.49,4.49,0,0,1-1.271-.12,8.652,8.652,0,0,1-1.272-2.062c-.576.624-2.351,3.4-2.879,3.573.1.361-.24.457-.215.793-.648.359-2.3,3.238-2.878,4.029a.341.341,0,0,0-.241.36c-.311.48-.743.863-1.031,1.367-.647,1.08-3.166,5.3-4.51,5.3h-.095c-.384-.432-.216-1.51-.241-2.063a10.339,10.339,0,0,0,.6-1.847c.265-.168.049-.67.336-.815,0-.264.24-.432.24-.7l-.024-.217c.312-.072.264-.527.576-.576a4.72,4.72,0,0,1,1.056-2.063c-.288-.742,3.213-4.724,3.549-5.66a28.243,28.243,0,0,0,2.087-2.063c.409-.5,3.166-3.071,3.67-3.119.215-.647,4.461-3.118,5.3-3.118.768,0,1.127.529,1.607,1.056a.471.471,0,0,0,.12.456v.1c0,.288-.12.552-.12.839l.12.216v.24a12.477,12.477,0,0,1-.336,2.518.261.261,0,0,0,.168.072,58.575,58.575,0,0,0,6.07-2.686ZM622.451,313.1c-.24.192-.361.455-.7.455-.143.552-.742.7-1.031,1.152-.5.264-.67.864-1.151,1.151-.312.024-.216.48-.455.576-.072.312-.48.312-.48.7-.408.047-.7,1.007-1.152,1.151-.024.048-1.678,2.446-1.823,2.64-.168.6-.767.837-.815,1.509-.432.385-.48.985-.911,1.367v.577c-.361.24-.432.718-.7,1.031a3.142,3.142,0,0,1-.359,1.391c.12.361-.144.335-.216.576-.048.023-.12.049-.12.1,0,.168.168.289.168.432a.344.344,0,0,1-.048.168c.407-.1.552-.479.7-.814a1.514,1.514,0,0,0,.672-.913c.5-.335.6-1.031,1.056-1.39v-.217c.168-.311.479-.742.671-1.055l.24-.1c.1-.145-.072-.5.24-.481.432-.719,1.032-1.344,1.487-2.062a.457.457,0,0,1,.336-.455c.144-.217.1-.481.24-.7h.24v-.238c.887-1.057,1.535-2.64,2.639-3.455.023-.455.478-.623.574-1.031a6.82,6.82,0,0,0,1.176-2.111c0-.072-.024-.1-.143-.072A.578.578,0,0,1,622.451,313.1Zm5.4-3.454c-.024.144-.168.216-.217.336-.574-.072-.719.48-1.272.455a2.984,2.984,0,0,1-.886.936,9.3,9.3,0,0,1-1.127,2.3,1.574,1.574,0,0,0-.408.792c.552.36.72,1.32,1.558,1.32.625,0,1.32-.408,2.039-.408-.023-.264.408-.384.6-.457a6.571,6.571,0,0,0,1.056-3.6,3.375,3.375,0,0,0-.289-1.463,2.523,2.523,0,0,0-.935-.216Z" fill="#ccc"/>
      <path id="パス_270" data-name="パス 270" d="M635.027,311.944a5.865,5.865,0,0,1,.577-.456c.7-.1.982-.6,1.6-.792a9.6,9.6,0,0,0,.936-1.055,9.575,9.575,0,0,1,1.824-.456c.383.288,1.2.6,1.176,1.272a4.987,4.987,0,0,1,.287,1.247c.023.047.144.1.336.047.336-.072.023.025.359-.1a1.722,1.722,0,0,1,.984-.048,2.651,2.651,0,0,1-.576,1.007c-.049.024-.144.049-.336.12-.384.144-.144.024-.5.168-.382.144-.431.192-.431.216a7.1,7.1,0,0,1-1.391,2.063c-.144.144-.744.48-.672.7-.289.048-.191.264-.48.576a12.735,12.735,0,0,1-2.758,1.727,6.266,6.266,0,0,1-2.543-.12,4.723,4.723,0,0,1-.24-2.183c.121-.263.217-.576.359-.815.049-.1.289-.145.336-.24.1-.144.049-.312.121-.455a5.523,5.523,0,0,1,.791-1.44A5.336,5.336,0,0,0,635.027,311.944Zm1.272,1.39c-.289.025-.336.289-.457.457-.479.6-.815,1.343-1.27,1.846,0,.5-.336.672-.24,1.272h1.176a4.7,4.7,0,0,0,1.15-.576c.1-.1.1-.048.24-.12.36-.215.577-.624,1.032-.7a7.032,7.032,0,0,1,.7-.791,3.676,3.676,0,0,1,.791-.7c.168-.288.361-.288.361-.672a4.022,4.022,0,0,1-1.632.311c-.168-.143-.5-.1-.815-.1-.312-.193-.527-.48-.912-.576C636.4,313.143,636.25,313.143,636.3,313.334Zm2.879-2.3a1.086,1.086,0,0,1-.817.456c-.072.24-.648.576-.336.815.024-.191.168,0,.12.216a4.6,4.6,0,0,0,2.087-.336c-.048-.455.1-1.1-.119-1.391a4.465,4.465,0,0,0-.816-.1C639.273,310.84,639.129,310.84,639.178,311.032Z" fill="#ccc"/>
      <path id="パス_271" data-name="パス 271" d="M647.242,316.693c-.049-.168-.793.192-.816.336-.576.311-1.344.431-1.967.7-.119.264-.336.048-.576.12-.047.025-.287.216-.336.24-.6.1-1.223-.024-1.727.1-.072-.311-.478-.288-.455-.672a1.818,1.818,0,0,1,.073-1.055,6.293,6.293,0,0,1,1.2-1.727c.742-.624,1.582-2.087,2.375-2.662.07-.265.336-.36.574-.456.025-.336.361-.336.457-.576a5.529,5.529,0,0,0,.574-.48c.217-.1.145-.456.576-.336.481-.048.313.529.577.7-.122.719-.84.839-1.032,1.487-.6.216-.72.935-1.175,1.271-.6.241-1.151,1.415-1.68,1.751-.287.5-.936.672-1.031,1.392.48.312,1.2-.1,1.511-.36a5.648,5.648,0,0,0,2.184-.791c.623-.336,1.2-.6,1.822-.96.481-.192.481-.528.887-.768.5-.143.984-.575,1.584-.623.264.743-.168,1.463-1.248,2.015-.168.24-.551.359-.742.576C648.537,316.261,647.506,316.189,647.242,316.693Zm2.95-10.186a4.572,4.572,0,0,1,.359,1.726c-.311.408-1.127.193-1.51,0C649.016,307.25,649.016,306.291,650.192,306.507Z" fill="#ccc"/>
      <path id="パス_272" data-name="パス 272" d="M660.51,315.782c-.408.143-.5.336-1.151.623-.408.36-.625.264-1.056.6-.887.624-1.99.7-2.926,1.272-.672.024-1.559.311-2.086-.239a2.5,2.5,0,0,1,.359-1.368c.024-.048-.048-.216,0-.24.12-.1.024-.192.12-.336.023-.072.168-.024.216-.12a3.958,3.958,0,0,1,.241-.456c.07-.119.238-.216.334-.359.025-.024-.024-.192,0-.216a1.114,1.114,0,0,0,.24-.24c.24-.335.984-1.751,1.271-2.279a17.561,17.561,0,0,0-3.765,2.543,4.011,4.011,0,0,0-.719.719c-.529.336-.7.96-1.2,1.319-.385.025-.336.5-.7.577-.238.168-.431.407-.7.575-.6-.072-.742.312-1.055-.119-.048-.577.264-.792.456-1.152a3.262,3.262,0,0,0,.7-.912,29.115,29.115,0,0,0,1.631-2.854c.1-.408.529-2.423.648-2.71.168-.409.432-.361,1.008-.265.408.385,0,2.495-.289,2.975.168.072,0,.12,0,.24h-.119c.072.336.191-.168.359-.12.217,0,.072-.312.385-.216.119-.312.455-.408.576-.7.264.071.359-.12.574-.241a5.619,5.619,0,0,0,.912-.575c.12-.072.241-.264.36-.336a18.317,18.317,0,0,0,1.967-1.151c.408-.192,1.392-.672,1.966-.36a1.361,1.361,0,0,1-.574,1.727c.047.455-.48.359-.457.816-.336.047-.264.5-.574.575a7.591,7.591,0,0,1-1.393,2.255,3.77,3.77,0,0,1-.478.815c-.336.049-.217.552-.457.7.191.312.431-.264.695-.24.24-.1.625.072.816-.1.313-.024.313-.144.577-.215a10,10,0,0,0,2.662-1.176,2.432,2.432,0,0,0,.863-.432,3.448,3.448,0,0,0,.6-.527c.191-.072.527-.361.7-.432a3.126,3.126,0,0,1,1.512-.648c.119,1.128-.145,1.584-.5,1.607-.217,0-.6.144-.623.24A10,10,0,0,1,660.51,315.782Z" fill="#ccc"/>
      <path id="パス_273" data-name="パス 273" d="M670.662,316.333c-.576.264-.84.576-1.222.768a6.712,6.712,0,0,1-1.032.6,2.3,2.3,0,0,0-.5.216c-.144.047-.168.143-.455.215-.144.048-.576.192-.793.24-.359.1.024-.072-.478.047a2.013,2.013,0,0,0-.7.241,7.027,7.027,0,0,0-2.063-.119c-.143-.241-.5-.265-.814-.361-.289-.479-.913-.911-1.032-1.727a4.384,4.384,0,0,1,.239-1.823c.289-.6.457-1.655.793-1.966a25.348,25.348,0,0,1,1.63-2.879c-.168-.192-.576-.168-.935-.12-.264.047-.84.168-1.367.24-.744.072-1.727.431-1.967-.361-.049-.455.6-.239.814-.455.217-.192.744-.1.912-.336,1.2-.072,2.3-.24,3.454-.36a.819.819,0,0,0,.457-.335c.072-.1.046-.24.119-.336.168-.216.672-.6.912-.935.48-.577.84-1.224,1.271-1.848.409-.287.36-1.007,1.151-.911.48,0,.1.815.361,1.031-.576,1.128-1.584,1.8-1.967,3.118.047.24.574.049.815.12,2.662-.239,5.492-.359,8.156-.575.287.144.7.336.406.7-.6.048-1.1.121-1.078.1-.672-.023-1.1.193-1.848.12-.5.288-.959.1-1.607.336a3.317,3.317,0,0,1-1.15-.1c-.791.359-.84-.025-1.631.215a.82.82,0,0,1-.672,0,2.994,2.994,0,0,1-.7.24c-.289.047-.864-.48-1.272,0,.024.24-.408.047-.576.12-.264.672-.887,1.008-1.152,1.727-.575.407-.528,1.1-1.151,1.488.024.311-.312.455-.455.7-.168.24-.168.623-.457.791-.142.912-.527,1.655-.119,2.543a2.318,2.318,0,0,0,.7.456c.1.023.073.1.1.12.768.359,1.824,0,2.662-.12a3.187,3.187,0,0,0,1.32-.528c.024-.024.647-.336.672-.336.192-.1.336-.264.551-.36a7.022,7.022,0,0,1,.7-.12c.121-.263.553-.191.889-.239C670.9,315.853,670.447,316.069,670.662,316.333Z" fill="#ccc"/>
    </g>
  </g>
</svg>
