<svg xmlns="http://www.w3.org/2000/svg" width="121.065" height="50.695" viewBox="0 0 121.065 50.695">
  <g id="point-4" transform="translate(-58 -2515.76)">
    <g id="グループ_203" data-name="グループ 203" transform="translate(-553.136 2031.717)">
      <g id="グループ_201" data-name="グループ 201">
        <path id="パス_288" data-name="パス 288" d="M678.621,493.943v-.06c0-.24.42-.24.661-.24a10.823,10.823,0,0,1,2.219.3c.061,0,.12.24.3.3a28.8,28.8,0,0,1,4.92,1.439c.481.24.66.9,1.2.9a.452.452,0,0,0,.241-.061c2.159,3.66,5.458,4.08,5.458,9.84-.539,3.66-3.119,5.34-4.619,8.04-1.74.42-2.1,2.279-4.32,2.279-.96,1.32-2.88,1.561-3.72,2.88-3.359.6-6.359,2.94-10.739,2.94-.9,0-1.8-.12-2.7-.12a8.861,8.861,0,0,0-1.26.06v-.06c0-.179-.18-.179-.3-.24-2.219-.3-4.2-2.7-5.16-4.559,0-.96-.359-1.14-.359-1.861,0-1.5.3-2.7.359-4.2a35.029,35.029,0,0,0,1.68-3.721c1.02-.779,1.44-2.1,2.04-3.179.96-.84,1.44-2.04,2.28-2.88.72-1.08,1.86-1.62,2.34-2.88.96-.06,1.38-1.02,1.979-1.44.721-.54,1.621-.66,2.041-1.44C675.262,495.563,676.522,494.3,678.621,493.943Zm-2.879,3.48c-.48.9-1.56,1.02-2.281,1.741-.9.839-1.319,2.039-2.34,2.879a11.564,11.564,0,0,0-1.979.84,16.106,16.106,0,0,1-1.74,2.579c-1.8,2.7-3.6,5.281-4.32,8.941.42,4.2,2.76,5.279,6.48,5.279a9.154,9.154,0,0,0,4.439-.96c5.46-.66,7.861-2.88,11.281-4.92,1.439-.719,2.159-2.219,3.719-2.88a5.057,5.057,0,0,1,1.44-2.279c.48-.841.54-1.86,1.14-2.58a15.1,15.1,0,0,0-1.44-4.02c-2.46-1.92-4.02-4.68-7.739-5.22-1.021.66-.781,2.52-2.34,2.58a.748.748,0,0,1-.061-.36c0-.48.12-1.02.12-1.5s-.12-.72-.6-.72C678.142,496.883,677.3,497.423,675.742,497.423Z"/>
        <path id="パス_289" data-name="パス 289" d="M732.2,485.484c-.061,1.559-1.561,2.519-2.281,3.72-.3.479-.3,1.019-.6,1.439-.959,1.5-2.52,2.761-3.18,4.62-.9.3-.779,1.5-1.14,2.04-.12.12-.479.12-.6.24-.24.42-.3,1.02-.54,1.44-.181.3-.721.6-.9.9a10.342,10.342,0,0,0-.54,1.44,40.249,40.249,0,0,0-2.04,3.72c.84.72,1.981,1.08,2.34,2.339-.239.841-.779,2.34-1.619,2.34-1.2,0-.6-1.8-1.86-1.8-1.56.481-1.68,2.4-2.88,3.181a2.509,2.509,0,0,1-1.14,2.039,18.087,18.087,0,0,1-2.04,4.021c-.66,1.259-1.26,2.4-1.98,3.719a3.771,3.771,0,0,0-.9,2.04.664.664,0,0,0,.6.3c.48,0,1.08-.36,1.74-.36.3,0,.54-.06.54.48,0,2.52-2.22,1.92-2.28,3.3-1.14.06-2.1.6-3.12.6-1.32,0-1.5-.9-1.5-1.74,0-1.62,1.08-2.94,1.14-4.62a.455.455,0,0,0,.241.06c.659,0,.419-.779.9-.9,1.2-4.621,4.26-8.22,6.36-12.121a1.519,1.519,0,0,0-.961-.3h-1.38c-3.719,0-12.9,1.259-12.9,2.04a2.8,2.8,0,0,0-1.019-.18c-.781,0-1.741.18-2.581.18s-1.679-.18-1.679-1.26c0-1.92,2.04-1.74,2.4-3.36.841-1.14,2.221-1.8,2.88-3.18,1.561-.42,1.86-2.1,3.42-2.58.96-.78,2.221-2.579,3.48-2.579.96-1.261,2.04-3.54,3.84-3.54.72,0,.78.9.78,1.379,0,2.88-4.5,5.041-6.06,7.32-1.2.24-3.239,2.22-3.779,3.18.059.3.3.36.6.36.361,0,.781-.12,1.08-.12.121,0,.241.06.361.06,3.059-.42,6.659-.24,9.479-.841.84.061,1.38.3,2.22.3.54,0,.84-.3,1.38-.3h.18a5.85,5.85,0,0,0,1.74-2.879c1.08-1.74,1.8-3.78,2.34-3.78h.24c.3-.36.239-1.08.84-1.139,1.08-2.221,3.42-6.96,4.92-7.2.479-2.16,2.04-3.3,3.179-4.919.42,0-.24-.541.9-.541C731.78,484.043,731.661,485.064,732.2,485.484Z"/>
      </g>
      <g id="グループ_202" data-name="グループ 202">
        <path id="パス_290" data-name="パス 290" d="M636.963,515.357c.047,0-1.416,1.583-1.44,1.583-.335.144-4.318,2.015-4.365,2.159a1.929,1.929,0,0,0-1.031.575,22.724,22.724,0,0,0-2.135,1.224,3.12,3.12,0,0,0-.672.24c-.048.287-.648.1-.72.36h-.815a4.455,4.455,0,0,1-1.271-.121,8.652,8.652,0,0,1-1.272-2.062c-.576.624-2.351,3.4-2.879,3.573.1.361-.24.457-.215.793-.648.36-2.3,3.238-2.878,4.029a.341.341,0,0,0-.241.36c-.311.48-.743.863-1.031,1.367-.647,1.08-3.166,5.3-4.51,5.3h-.095c-.384-.432-.216-1.51-.241-2.063a10.339,10.339,0,0,0,.6-1.847c.265-.168.049-.67.336-.815,0-.264.24-.431.24-.7l-.024-.217c.312-.072.264-.527.576-.576a4.72,4.72,0,0,1,1.056-2.063c-.288-.742,3.213-4.724,3.549-5.66a28.243,28.243,0,0,0,2.087-2.063c.409-.5,3.166-3.071,3.67-3.118.215-.648,4.461-3.119,5.3-3.119.768,0,1.127.529,1.607,1.056a.471.471,0,0,0,.12.456v.1c0,.288-.12.552-.12.839l.12.217v.239a12.477,12.477,0,0,1-.336,2.518.263.263,0,0,0,.168.073,58.592,58.592,0,0,0,6.07-2.687Zm-14.512,1.775c-.24.192-.361.455-.7.455-.143.552-.742.7-1.031,1.152-.5.264-.67.864-1.151,1.151-.312.025-.216.481-.455.576-.072.312-.48.312-.48.7-.408.047-.7,1.007-1.152,1.151-.024.048-1.678,2.446-1.823,2.64-.168.6-.767.838-.815,1.509-.432.385-.48.985-.911,1.368v.576c-.361.24-.432.718-.7,1.031a3.143,3.143,0,0,1-.359,1.391c.12.361-.144.336-.216.576-.048.023-.12.049-.12.1,0,.168.168.29.168.432a.344.344,0,0,1-.048.168c.407-.1.552-.478.7-.814a1.514,1.514,0,0,0,.672-.912c.5-.336.6-1.032,1.056-1.391v-.217c.168-.31.479-.742.671-1.055l.24-.1c.1-.145-.072-.5.24-.481.432-.718,1.032-1.343,1.487-2.062a.457.457,0,0,1,.336-.455c.144-.217.1-.481.24-.7h.24v-.238c.887-1.057,1.535-2.64,2.639-3.455.023-.455.478-.623.574-1.031a6.82,6.82,0,0,0,1.176-2.111c0-.072-.024-.1-.143-.072A.578.578,0,0,1,622.451,517.132Zm5.4-3.454c-.024.144-.168.216-.217.336-.574-.072-.719.48-1.272.455a2.963,2.963,0,0,1-.886.936,9.294,9.294,0,0,1-1.127,2.3,1.579,1.579,0,0,0-.408.792c.552.36.72,1.32,1.558,1.32.625,0,1.32-.408,2.039-.408-.023-.264.408-.384.6-.456a6.577,6.577,0,0,0,1.056-3.6,3.375,3.375,0,0,0-.289-1.463,2.523,2.523,0,0,0-.935-.216Z" fill="#ccc"/>
        <path id="パス_291" data-name="パス 291" d="M635.027,515.981a5.861,5.861,0,0,1,.577-.456c.7-.1.982-.6,1.6-.792a9.6,9.6,0,0,0,.936-1.055,9.648,9.648,0,0,1,1.824-.456c.383.288,1.2.6,1.176,1.272a4.986,4.986,0,0,1,.287,1.247c.023.048.144.095.336.048.336-.073.023.024.359-.1a1.732,1.732,0,0,1,.984-.048,2.651,2.651,0,0,1-.576,1.007c-.049.024-.144.049-.336.12-.384.144-.144.024-.5.168-.382.144-.431.192-.431.216a7.1,7.1,0,0,1-1.391,2.063c-.144.144-.744.48-.672.7-.289.047-.191.263-.48.575a12.735,12.735,0,0,1-2.758,1.727,6.265,6.265,0,0,1-2.543-.12,4.719,4.719,0,0,1-.24-2.182c.121-.264.217-.577.359-.816.049-.1.289-.144.336-.24.1-.144.049-.312.121-.455a5.524,5.524,0,0,1,.791-1.44A5.336,5.336,0,0,0,635.027,515.981Zm1.272,1.391c-.289.024-.336.288-.457.456-.479.6-.815,1.343-1.27,1.846,0,.5-.336.672-.24,1.272h1.176a4.734,4.734,0,0,0,1.15-.575c.1-.1.1-.049.24-.121.36-.215.577-.624,1.032-.7a7.122,7.122,0,0,1,.7-.791,3.676,3.676,0,0,1,.791-.7c.168-.288.361-.288.361-.672a4.021,4.021,0,0,1-1.632.311c-.168-.143-.5-.095-.815-.095-.312-.193-.527-.48-.912-.576C636.4,517.18,636.25,517.18,636.3,517.372Zm2.879-2.3a1.086,1.086,0,0,1-.817.456c-.072.24-.648.576-.336.815.024-.191.168,0,.12.216a4.6,4.6,0,0,0,2.087-.336c-.048-.455.1-1.1-.119-1.39a4.467,4.467,0,0,0-.816-.1C639.273,514.877,639.129,514.877,639.178,515.069Z" fill="#ccc"/>
        <path id="パス_292" data-name="パス 292" d="M647.242,520.73c-.049-.168-.793.192-.816.336-.576.311-1.344.432-1.967.7-.119.264-.336.048-.576.12-.047.025-.287.216-.336.241-.6.095-1.223-.025-1.727.095-.072-.311-.478-.288-.455-.672a1.819,1.819,0,0,1,.073-1.055,6.294,6.294,0,0,1,1.2-1.727c.742-.624,1.582-2.087,2.375-2.662.07-.265.336-.36.574-.456.025-.336.361-.336.457-.576a5.522,5.522,0,0,0,.574-.48c.217-.095.145-.456.576-.336.481-.047.313.529.577.7-.122.719-.84.84-1.032,1.487-.6.216-.72.936-1.175,1.271-.6.241-1.151,1.416-1.68,1.751-.287.5-.936.672-1.031,1.392.48.312,1.2-.1,1.511-.36a5.648,5.648,0,0,0,2.184-.791c.623-.336,1.2-.6,1.822-.96.481-.192.481-.528.887-.768.5-.143.984-.575,1.584-.623.264.743-.168,1.463-1.248,2.015-.168.24-.551.359-.742.576C648.537,520.3,647.506,520.226,647.242,520.73Zm2.95-10.186a4.572,4.572,0,0,1,.359,1.726c-.311.409-1.127.193-1.51,0C649.016,511.287,649.016,510.328,650.192,510.544Z" fill="#ccc"/>
        <path id="パス_293" data-name="パス 293" d="M660.51,519.819c-.408.143-.5.336-1.151.623-.408.36-.625.265-1.056.6-.887.625-1.99.7-2.926,1.272-.672.024-1.559.311-2.086-.239a2.492,2.492,0,0,1,.359-1.367c.024-.049-.048-.217,0-.241.12-.1.024-.192.12-.336.023-.072.168-.024.216-.12a3.95,3.95,0,0,1,.241-.456c.07-.119.238-.216.334-.359.025-.024-.024-.192,0-.216a1.115,1.115,0,0,0,.24-.24c.24-.335.984-1.751,1.271-2.279A17.561,17.561,0,0,0,652.307,519a4.012,4.012,0,0,0-.719.719c-.529.336-.7.96-1.2,1.319-.385.025-.336.5-.7.577-.238.168-.431.407-.7.575-.6-.071-.742.312-1.055-.119-.048-.576.264-.792.456-1.152a3.248,3.248,0,0,0,.7-.912,29.119,29.119,0,0,0,1.631-2.854c.1-.407.529-2.423.648-2.71.168-.408.432-.361,1.008-.265.408.385,0,2.495-.289,2.975.168.072,0,.12,0,.24h-.119c.072.336.191-.168.359-.12.217,0,.072-.312.385-.216.119-.311.455-.408.576-.7.264.071.359-.12.574-.241a5.557,5.557,0,0,0,.912-.575c.12-.072.241-.264.36-.336a18.15,18.15,0,0,0,1.967-1.151c.408-.192,1.392-.672,1.966-.36a1.361,1.361,0,0,1-.574,1.727c.047.455-.48.36-.457.816-.336.047-.264.5-.574.575a7.591,7.591,0,0,1-1.393,2.255,3.771,3.771,0,0,1-.478.815c-.336.049-.217.552-.457.7.191.312.431-.264.695-.24.24-.1.625.072.816-.1.313-.024.313-.144.577-.215a10,10,0,0,0,2.662-1.176,2.432,2.432,0,0,0,.863-.432,3.448,3.448,0,0,0,.6-.527c.191-.072.527-.36.7-.432a3.126,3.126,0,0,1,1.512-.648c.119,1.128-.145,1.584-.5,1.607-.217,0-.6.144-.623.24A9.992,9.992,0,0,1,660.51,519.819Z" fill="#ccc"/>
        <path id="パス_294" data-name="パス 294" d="M670.662,520.371c-.576.263-.84.575-1.222.767a6.709,6.709,0,0,1-1.032.6,2.3,2.3,0,0,0-.5.216c-.144.047-.168.143-.455.215-.144.048-.576.192-.793.24-.359.1.024-.072-.478.048a1.99,1.99,0,0,0-.7.24,7.026,7.026,0,0,0-2.063-.119c-.143-.241-.5-.265-.814-.361-.289-.479-.913-.911-1.032-1.727a4.386,4.386,0,0,1,.239-1.823c.289-.6.457-1.655.793-1.966a25.35,25.35,0,0,1,1.63-2.879c-.168-.192-.576-.168-.935-.12-.264.047-.84.168-1.367.24-.744.072-1.727.432-1.967-.36-.049-.456.6-.24.814-.456.217-.192.744-.095.912-.335,1.2-.073,2.3-.241,3.454-.361a.819.819,0,0,0,.457-.335c.072-.1.046-.24.119-.336.168-.216.672-.6.912-.935.48-.576.84-1.224,1.271-1.848.409-.287.36-1.007,1.151-.911.48,0,.1.815.361,1.031-.576,1.128-1.584,1.8-1.967,3.118.047.241.574.049.815.12,2.662-.239,5.492-.359,8.156-.575.287.144.7.336.406.7-.6.047-1.1.12-1.078.095-.672-.023-1.1.193-1.848.12-.5.288-.959.1-1.607.336a3.317,3.317,0,0,1-1.15-.095c-.791.359-.84-.025-1.631.215a.82.82,0,0,1-.672,0,3,3,0,0,1-.7.24c-.289.048-.864-.48-1.272,0,.024.24-.408.048-.576.12-.264.672-.887,1.008-1.152,1.727-.575.408-.528,1.1-1.151,1.488.024.311-.312.455-.455.7-.168.24-.168.623-.457.791-.142.912-.527,1.655-.119,2.543a2.317,2.317,0,0,0,.7.456c.1.023.073.1.1.12.768.36,1.824,0,2.662-.12a3.187,3.187,0,0,0,1.32-.528c.024-.024.647-.336.672-.336.192-.1.336-.264.551-.36a7.04,7.04,0,0,1,.7-.12c.121-.263.553-.191.889-.239C670.9,519.89,670.447,520.106,670.662,520.371Z" fill="#ccc"/>
      </g>
    </g>
  </g>
</svg>
