<svg xmlns="http://www.w3.org/2000/svg" width="125.992" height="43.139" viewBox="0 0 125.992 43.139"><g transform="translate(-20 -2061.71)"><g transform="translate(-591.136 1703.937)"><path d="M680.31,359.273v-.059c0-.24.42-.24.66-.24a10.884,10.884,0,0,1,2.22.3c.06,0,.12.241.3.3a28.849,28.849,0,0,1,4.92,1.44c.48.24.66.9,1.2.9a.455.455,0,0,0,.24-.06c2.159,3.66,5.459,4.08,5.459,9.839-.539,3.661-3.119,5.34-4.619,8.04-1.74.42-2.1,2.28-4.32,2.28-.96,1.32-2.88,1.56-3.72,2.88-3.36.6-6.36,2.94-10.739,2.94-.9,0-1.8-.12-2.7-.12a8.99,8.99,0,0,0-1.259.059v-.059c0-.18-.18-.18-.3-.24-2.22-.3-4.2-2.7-5.16-4.56,0-.96-.36-1.14-.36-1.86,0-1.5.3-2.7.36-4.2a35.019,35.019,0,0,0,1.679-3.721c1.021-.779,1.441-2.1,2.04-3.18.96-.84,1.441-2.04,2.281-2.88.719-1.08,1.859-1.62,2.339-2.88.96-.059,1.38-1.019,1.98-1.439.721-.54,1.62-.66,2.04-1.441C676.951,360.894,678.21,359.634,680.31,359.273Zm-2.88,3.481c-.479.9-1.56,1.019-2.28,1.74-.9.84-1.32,2.039-2.34,2.879a11.628,11.628,0,0,0-1.98.841,16.13,16.13,0,0,1-1.74,2.579c-1.8,2.7-3.6,5.28-4.319,8.94.42,4.2,2.76,5.28,6.479,5.28a9.159,9.159,0,0,0,4.44-.96c5.46-.66,7.86-2.88,11.28-4.92,1.44-.72,2.159-2.22,3.72-2.88a5.042,5.042,0,0,1,1.439-2.279c.481-.841.54-1.861,1.141-2.58a15.073,15.073,0,0,0-1.441-4.021c-2.459-1.92-4.019-4.68-7.739-5.22-1.02.66-.78,2.521-2.34,2.58a.757.757,0,0,1-.06-.359c0-.48.12-1.02.12-1.5s-.12-.721-.6-.721C679.83,362.214,678.99,362.754,677.43,362.754Z"/><path d="M720.689,360.354v.24c0,.719-.54,1.139-.3,1.8-.36,2.16-1.92,3.059-2.28,5.16a25.7,25.7,0,0,0-4.02,5.219c-.66-.24-1.559,2.161-2.639,2.581-1.2,2.339-3.6,4.079-5.161,5.459-.6.54-.96,1.32-1.739,1.74-1.14,1.14-2.64,1.98-3.721,3.179.661.661,2.041-.3,2.88.241,5.221-.6,10.741-.72,15.241-1.68,3.479-.96,8.279-1.38,12.359-2.04,1.92-.3,3.84-.72,5.76-.84a1.19,1.19,0,0,1,.059.42c0,1.02-1.62.96-2.34,1.26-.24.12-.24.48-.54.6a12.131,12.131,0,0,0-3.479,1.44c-3,.24-6.06,1.08-8.94,1.439a8.207,8.207,0,0,0-3.419.841,69.193,69.193,0,0,0-8.4,1.2c-2.639,0-5.4-.059-7.2.841h-.72c-2.04,0-4.32.36-6.72.36-.959,0-2.879-.18-2.879-1.14a3.9,3.9,0,0,1,1.2-2.1c1.14,0,1.14-1.079,2.221-1.139,1.019-1.26,2.639-1.98,4.019-2.88a21.827,21.827,0,0,1,2.04-2.04c.779-.6,1.56-.42,2.04-1.74a11.693,11.693,0,0,0,2.279-2.28,28.417,28.417,0,0,0,2.88-2.58c.181-.24.12-.66.3-.9.24-.3.841-.481,1.141-.84.359-.421.54-1.021.84-1.441.179-.24,1.74-1.8,1.74-1.86v-.119c.539-.721.9-1.681,1.739-2.04.3-1.8,1.74-2.521,1.74-4.62a1.756,1.756,0,0,0-.96-.24c-2.4,0-4.32,2.219-6.839,3.12-1.081.36-2.88,2.339-4.8,2.339-1.38,0-1.8-.719-2.4-1.74.9-2.219,3.48-2.7,5.459-3.779,1.8-1.26,4.26-1.86,6.061-3.18,1.5-.06,3.119-.841,4.439-.841C719.129,357.773,720.029,359.334,720.689,360.354Z"/></g><g transform="translate(-591.136 1703.937)"><path d="M636.963,381.531c.047,0-1.416,1.583-1.44,1.583-.335.145-4.318,2.015-4.365,2.159a1.929,1.929,0,0,0-1.031.575,22.731,22.731,0,0,0-2.135,1.224,3.175,3.175,0,0,0-.672.24c-.048.287-.648.1-.72.36h-.815a4.49,4.49,0,0,1-1.271-.12,8.678,8.678,0,0,1-1.272-2.063c-.576.624-2.351,3.4-2.879,3.573.1.362-.24.457-.215.793-.648.36-2.3,3.239-2.878,4.03a.339.339,0,0,0-.241.359c-.311.48-.743.863-1.031,1.367-.647,1.08-3.166,5.3-4.51,5.3h-.095c-.384-.432-.216-1.51-.241-2.063a10.34,10.34,0,0,0,.6-1.847c.265-.168.049-.67.336-.815,0-.263.24-.431.24-.7l-.024-.217c.312-.072.264-.527.576-.576a4.72,4.72,0,0,1,1.056-2.063c-.288-.742,3.213-4.724,3.549-5.66a28.243,28.243,0,0,0,2.087-2.063c.409-.5,3.166-3.07,3.67-3.118.215-.648,4.461-3.118,5.3-3.118.768,0,1.127.528,1.607,1.055a.471.471,0,0,0,.12.456v.1c0,.288-.12.552-.12.839l.12.217v.239a12.477,12.477,0,0,1-.336,2.518.263.263,0,0,0,.168.073,58.385,58.385,0,0,0,6.07-2.687Zm-14.512,1.775c-.24.192-.361.455-.7.455-.143.552-.742.7-1.031,1.152-.5.265-.67.864-1.151,1.151-.312.025-.216.481-.455.576-.072.312-.48.312-.48.7-.408.048-.7,1.008-1.152,1.151-.024.048-1.678,2.446-1.823,2.64-.168.6-.767.838-.815,1.509-.432.385-.48.985-.911,1.368v.576c-.361.24-.432.719-.7,1.031A3.143,3.143,0,0,1,612.88,397c.12.361-.144.336-.216.576-.048.023-.12.049-.12.1,0,.168.168.289.168.431a.341.341,0,0,1-.048.168c.407-.1.552-.478.7-.814a1.515,1.515,0,0,0,.672-.912c.5-.336.6-1.032,1.056-1.391v-.217c.168-.31.479-.742.671-1.054l.24-.1c.1-.145-.072-.5.24-.481.432-.718,1.032-1.343,1.487-2.062a.457.457,0,0,1,.336-.455c.144-.217.1-.481.24-.7h.24v-.239c.887-1.056,1.535-2.639,2.639-3.455.023-.455.478-.623.574-1.031a6.826,6.826,0,0,0,1.176-2.11c0-.073-.024-.1-.143-.073A.571.571,0,0,1,622.451,383.306Zm5.4-3.454c-.024.144-.168.216-.217.336-.574-.072-.719.48-1.272.455a2.963,2.963,0,0,1-.886.936,9.318,9.318,0,0,1-1.127,2.3,1.571,1.571,0,0,0-.408.792c.552.359.72,1.319,1.558,1.319.625,0,1.32-.408,2.039-.408-.023-.264.408-.384.6-.456a6.575,6.575,0,0,0,1.056-3.6,3.375,3.375,0,0,0-.289-1.463,2.523,2.523,0,0,0-.935-.216Z" fill="#ccc"/><path d="M635.027,382.155a6.019,6.019,0,0,1,.577-.456c.7-.1.982-.6,1.6-.792a9.6,9.6,0,0,0,.936-1.055,9.651,9.651,0,0,1,1.824-.456c.383.288,1.2.6,1.176,1.272a4.987,4.987,0,0,1,.287,1.247c.023.048.144.1.336.048.336-.073.023.024.359-.1a1.732,1.732,0,0,1,.984-.048,2.643,2.643,0,0,1-.576,1.007c-.049.024-.144.049-.336.12-.384.145-.144.024-.5.168-.382.145-.431.192-.431.216a7.1,7.1,0,0,1-1.391,2.063c-.144.144-.744.48-.672.7-.289.047-.191.263-.48.575a12.735,12.735,0,0,1-2.758,1.727,6.266,6.266,0,0,1-2.543-.12,4.719,4.719,0,0,1-.24-2.182c.121-.264.217-.577.359-.816.049-.1.289-.144.336-.24.1-.144.049-.312.121-.455a5.523,5.523,0,0,1,.791-1.44A5.336,5.336,0,0,0,635.027,382.155Zm1.272,1.391c-.289.024-.336.288-.457.456-.479.6-.815,1.343-1.27,1.846,0,.5-.336.672-.24,1.272h1.176a4.736,4.736,0,0,0,1.15-.575c.1-.1.1-.049.24-.12.36-.216.577-.624,1.032-.7a7.213,7.213,0,0,1,.7-.791,3.7,3.7,0,0,1,.791-.7c.168-.288.361-.288.361-.672a4.038,4.038,0,0,1-1.632.312c-.168-.144-.5-.1-.815-.1-.312-.192-.527-.48-.912-.576C636.4,383.354,636.25,383.354,636.3,383.546Zm2.879-2.3a1.086,1.086,0,0,1-.817.456c-.072.24-.648.576-.336.815.024-.191.168,0,.12.216a4.582,4.582,0,0,0,2.087-.336c-.048-.455.1-1.1-.119-1.39a4.465,4.465,0,0,0-.816-.1C639.273,381.052,639.129,381.052,639.178,381.243Z" fill="#ccc"/><path d="M647.242,386.9c-.049-.168-.793.192-.816.336-.576.312-1.344.432-1.967.7-.119.264-.336.048-.576.12-.047.025-.287.216-.336.241-.6.1-1.223-.025-1.727.1-.072-.311-.478-.288-.455-.671a1.822,1.822,0,0,1,.073-1.056,6.294,6.294,0,0,1,1.2-1.727c.742-.624,1.582-2.087,2.375-2.662.07-.264.336-.36.574-.456.025-.336.361-.336.457-.576a5.529,5.529,0,0,0,.574-.48c.217-.1.145-.456.576-.335.481-.048.313.528.577.695-.122.72-.84.84-1.032,1.487-.6.216-.72.936-1.175,1.272-.6.24-1.151,1.415-1.68,1.751-.287.5-.936.671-1.031,1.391.48.312,1.2-.1,1.511-.36a5.632,5.632,0,0,0,2.184-.791c.623-.336,1.2-.6,1.822-.96.481-.192.481-.527.887-.768.5-.143.984-.575,1.584-.623.264.743-.168,1.463-1.248,2.015-.168.24-.551.359-.742.576C648.537,386.472,647.506,386.4,647.242,386.9Zm2.95-10.186a4.572,4.572,0,0,1,.359,1.726c-.311.409-1.127.193-1.51,0C649.016,377.461,649.016,376.5,650.192,376.718Z" fill="#ccc"/><path d="M660.51,385.993c-.408.143-.5.336-1.151.623-.408.36-.625.265-1.056.6-.887.624-1.99.7-2.926,1.271-.672.024-1.559.312-2.086-.239a2.494,2.494,0,0,1,.359-1.367c.024-.049-.048-.217,0-.241.12-.1.024-.192.12-.336.023-.072.168-.024.216-.12a3.958,3.958,0,0,1,.241-.456c.07-.119.238-.216.334-.359.025-.024-.024-.191,0-.216a1.115,1.115,0,0,0,.24-.24c.24-.335.984-1.751,1.271-2.278a17.487,17.487,0,0,0-3.765,2.543,4.006,4.006,0,0,0-.719.718c-.529.336-.7.96-1.2,1.32-.385.024-.336.5-.7.576-.238.168-.431.407-.7.575-.6-.071-.742.312-1.055-.119-.048-.576.264-.792.456-1.152a3.248,3.248,0,0,0,.7-.912,29.115,29.115,0,0,0,1.631-2.854c.1-.407.529-2.423.648-2.71.168-.408.432-.36,1.008-.265.408.385,0,2.495-.289,2.975.168.072,0,.12,0,.24h-.119c.072.336.191-.168.359-.12.217,0,.072-.312.385-.216.119-.311.455-.408.576-.7.264.071.359-.12.574-.24a5.63,5.63,0,0,0,.912-.576c.12-.072.241-.264.36-.336a17.987,17.987,0,0,0,1.967-1.151c.408-.192,1.392-.672,1.966-.36a1.361,1.361,0,0,1-.574,1.727c.047.455-.48.36-.457.816-.336.048-.264.5-.574.575a7.578,7.578,0,0,1-1.393,2.255,3.77,3.77,0,0,1-.478.815c-.336.049-.217.552-.457.7.191.311.431-.265.695-.241.24-.1.625.073.816-.1.313-.025.313-.145.577-.216a10,10,0,0,0,2.662-1.176,2.415,2.415,0,0,0,.863-.432,3.448,3.448,0,0,0,.6-.527c.191-.072.527-.36.7-.432a3.126,3.126,0,0,1,1.512-.648c.119,1.128-.145,1.584-.5,1.607-.217,0-.6.144-.623.241A10.041,10.041,0,0,1,660.51,385.993Z" fill="#ccc"/><path d="M670.662,386.545c-.576.263-.84.575-1.222.767a6.712,6.712,0,0,1-1.032.6,2.3,2.3,0,0,0-.5.216c-.144.048-.168.143-.455.216-.144.047-.576.191-.793.239-.359.1.024-.072-.478.048a1.99,1.99,0,0,0-.7.24,7.026,7.026,0,0,0-2.063-.119c-.143-.241-.5-.265-.814-.361-.289-.479-.913-.911-1.032-1.727a4.379,4.379,0,0,1,.239-1.822c.289-.6.457-1.656.793-1.967a25.348,25.348,0,0,1,1.63-2.879c-.168-.192-.576-.168-.935-.12-.264.048-.84.168-1.367.24-.744.072-1.727.432-1.967-.36-.049-.455.6-.24.814-.455.217-.193.744-.1.912-.336,1.2-.073,2.3-.241,3.454-.361a.819.819,0,0,0,.457-.335c.072-.1.046-.24.119-.336.168-.215.672-.6.912-.935.48-.576.84-1.224,1.271-1.848.409-.287.36-1.007,1.151-.911.48,0,.1.815.361,1.031-.576,1.128-1.584,1.8-1.967,3.118.047.241.574.049.815.121,2.662-.24,5.492-.36,8.156-.576.287.144.7.336.406.7-.6.048-1.1.12-1.078.1-.672-.023-1.1.193-1.848.121-.5.288-.959.1-1.607.335a3.317,3.317,0,0,1-1.15-.1c-.791.359-.84-.025-1.631.216a.828.828,0,0,1-.672,0,3.04,3.04,0,0,1-.7.239c-.289.048-.864-.48-1.272,0,.024.24-.408.048-.576.12-.264.672-.887,1.008-1.152,1.727-.575.408-.528,1.1-1.151,1.488.024.311-.312.455-.455.7-.168.24-.168.623-.457.791-.142.912-.527,1.655-.119,2.543a2.318,2.318,0,0,0,.7.456c.1.024.073.1.1.12.768.36,1.824,0,2.662-.12a3.187,3.187,0,0,0,1.32-.528c.024-.024.647-.336.672-.336.192-.1.336-.264.551-.36a7.022,7.022,0,0,1,.7-.12c.121-.263.553-.191.889-.239C670.9,386.064,670.447,386.28,670.662,386.545Z" fill="#ccc"/></g></g></svg>