<svg xmlns="http://www.w3.org/2000/svg" width="80" height="80" viewBox="0 0 80 80"><path d="M922,923h22.4v22.4H922Zm3.2,3.2v16h16v-16ZM922,948.6h3.2v3.2H922Zm0,6.4h3.2v3.2h9.6v6.4h-6.4v3.2h-3.2V971H922v-6.4h6.4v-3.2H922Zm0,19.2h3.2V971h3.2v-3.2h3.2V971h3.2v3.2h-3.2v3.2H922Zm0,6.4h22.4V1003H922Zm3.2,3.2v16h16v-16Zm0-32h3.2V955h-3.2Zm3.2-22.4H938V939h-9.6Zm0,19.2h6.4V955h-3.2v-3.2h-3.2Zm0,38.4H938v9.6h-9.6Zm6.4-12.8H938v-6.4h6.4v-3.2H938v-6.4h3.2v3.2h3.2v3.2h3.2V971H954v-9.6h-3.2v3.2h-3.2v-3.2h-3.2v-3.2h-3.2V955h3.2v3.2h6.4V955h-6.4v-3.2H938v-3.2h9.6v3.2h3.2v-3.2h-3.2v-6.4h3.2v6.4H954v3.2h3.2V955H954v6.4h3.2v3.2h3.2v3.2h-3.2v6.4h-9.6v3.2H934.8Zm6.4-3.2v3.2h3.2V971Zm6.4-48h3.2v6.4h-3.2Zm0,9.6h3.2v3.2h-3.2Zm0,44.8H954v3.2h-3.2V987h-3.2Zm0,12.8h9.6v3.2h-6.4v3.2h-3.2Zm0,9.6H954v-3.2h3.2v6.4h-9.6Zm3.2-70.4H954v3.2h-3.2ZM954,923h6.4v3.2H954Zm0,16h6.4v-3.2h-3.2v-3.2h3.2v3.2h3.2V939h3.2v3.2h-3.2v6.4h-6.4v-3.2H954Zm3.2,3.2v3.2h3.2v-3.2Zm0,32h3.2v3.2h-3.2Zm0,6.4h3.2v-3.2h6.4v3.2h-3.2V987h3.2v3.2h6.4V987H970v-3.2h3.2v-6.4H970V971h-3.2v3.2h-6.4v-6.4h3.2V971h3.2v-3.2h-3.2v-3.2H970v-3.2h-9.6V955h3.2v-3.2h3.2v6.4h6.4v-6.4H970v-3.2h-3.2v-6.4H970v3.2h3.2v-3.2h3.2v16h3.2v3.2h9.6v12.8h9.6V971h-6.4v-3.2h6.4V971h3.2v12.8h-3.2v6.4h3.2v3.2h-3.2v3.2h-3.2v3.2h6.4v3.2H979.6v-3.2h-3.2v-3.2h3.2v3.2H986v-9.6h-3.2v6.4h-3.2v-3.2H966.8v3.2h-9.6v-3.2h3.2v-3.2h-3.2V987h3.2v-3.2h-3.2Zm3.2,19.2h3.2v3.2h-3.2Zm3.2-76.8h3.2v3.2H970v3.2h-3.2v3.2H970v3.2h-6.4Zm6.4,44.8V971h3.2v3.2h3.2V971H986v-3.2Zm-3.2,32H970v3.2h-3.2Zm3.2-70.4h3.2v3.2H970Zm0,6.4h3.2V939H970Zm3.2,25.6v3.2h3.2v-3.2ZM970,996.6h3.2v3.2H970Zm3.2-73.6h3.2v3.2h-3.2Zm3.2,54.4V987H986v-9.6Zm3.2-54.4H1002v22.4H979.6Zm3.2,3.2v16h16v-16Zm-3.2,22.4h3.2v3.2h-3.2Zm0,32h3.2v3.2h-3.2Zm3.2-28.8H986V955h-3.2Zm3.2-22.4h9.6V939H986Zm0,25.6h3.2v3.2H986Zm3.2,22.4V987h3.2v3.2h3.2v-6.4h-3.2v-6.4Zm0,16v6.4h3.2v-6.4Zm0-44.8h3.2v3.2h-3.2Zm0,9.6h6.4v3.2h6.4v6.4h-3.2v-3.2h-6.4v-3.2h-3.2Zm6.4,19.2v3.2h3.2v-3.2Zm0-28.8h6.4v3.2h-3.2V955h-3.2Z" transform="translate(-922 -923)" fill-rule="evenodd"/></svg>