<svg xmlns="http://www.w3.org/2000/svg" width="17.76" height="20.94" viewBox="0 0 17.76 20.94">
  <path id="question-icon" d="M8.484-8.592a10.459,10.459,0,0,1-.246,2.3,9,9,0,0,1-.714,2.034,7.964,7.964,0,0,1-1.14,1.71A7.719,7.719,0,0,1,4.872-1.212L9.288,3.552H7.368a2.276,2.276,0,0,1-.768-.12,1.532,1.532,0,0,1-.612-.42L2.964-.276A10.1,10.1,0,0,1,1.542.06,9.6,9.6,0,0,1,0,.18,9,9,0,0,1-3.456-.462,7.736,7.736,0,0,1-6.132-2.268,8.121,8.121,0,0,1-7.86-5.046a9.926,9.926,0,0,1-.612-3.546,9.926,9.926,0,0,1,.612-3.546,8.185,8.185,0,0,1,1.728-2.784A7.765,7.765,0,0,1-3.456-16.74,8.926,8.926,0,0,1,0-17.388a8.971,8.971,0,0,1,3.462.648,7.752,7.752,0,0,1,2.682,1.818,8.185,8.185,0,0,1,1.728,2.784A9.926,9.926,0,0,1,8.484-8.592Zm-2.388,0a8.739,8.739,0,0,0-.432-2.844,6.015,6.015,0,0,0-1.224-2.13A5.311,5.311,0,0,0,2.52-14.9,6.518,6.518,0,0,0,0-15.372a6.485,6.485,0,0,0-2.508.468,5.369,5.369,0,0,0-1.926,1.338,5.967,5.967,0,0,0-1.23,2.13A8.739,8.739,0,0,0-6.1-8.592a8.685,8.685,0,0,0,.432,2.838A5.974,5.974,0,0,0-4.434-3.63,5.3,5.3,0,0,0-2.508-2.3,6.559,6.559,0,0,0,0-1.836,6.592,6.592,0,0,0,2.52-2.3,5.249,5.249,0,0,0,4.44-3.63,6.023,6.023,0,0,0,5.664-5.754,8.685,8.685,0,0,0,6.1-8.592Z" transform="translate(8.472 17.388)" fill="#cc988f"/>
</svg>
