<svg xmlns="http://www.w3.org/2000/svg" width="216" height="157.209" viewBox="0 0 216 157.209"><path d="M634.61,76.61c.7.326,1.321-.451,1.236-1.087-2.485-5.421-.562-13.416,5.492-13.058,10.713.635,22.939,13.227,7.8,19.446a.96.96,0,0,0-.12,1.653,43.258,43.258,0,0,1,10.651,11.164c2.3,3.588,4.423,10.992-2.169,12.552-2.62.617-10.448-3.862-12.18-4.823a216.034,216.034,0,0,1-20.145-13.006c-8.089-5.732-16.11-11.6-24.459-16.957-2.024-1.293-6.528-5.08-9.888-5.669C596.231,58.412,628.539,73.773,634.61,76.61Zm36.322,102.3c-1.3,2.813-2.654,5.636-4.092,8.412-.269-.02-.544-.037-.807-.056-1.191-.088-1.289,1.7-.168,1.885-5.938,11.027-13.472,21.058-25.474,26.191-12.41,5.308-26.58,4.948-39.683,3.013-31.616-4.674-62.487-19.276-62.571-55.992a.985.985,0,0,0-1.452-.846.923.923,0,0,0-1.021-.547c-17.6,2.925-28.895-10.063-33.06-25.549-1.662-6.179-3.591-12.4-4.963-18.655-1.206-5.477-.075-4.542,5.165-5.189a.766.766,0,0,0,.72-.687c11.747,6.431,21.664,15.263,35.061,17.451.016,1.383.514,3.875,4.555-1.179a.948.948,0,0,0,1.829.472c5.541-17.344,26.987-18.061,36-32.354,22.834,7.248,45.8,13.879,69.6,17.083,6.686,10.274,19.64,16.026,26.106,26.04a.956.956,0,0,0,.835,1.36,23,23,0,0,1,2.458,6.372c-.309-.04-.6-.034-.921-.1-1.189-.255-1.784,1.563-.583,1.817.486.1.949.166,1.409.226-1.342,5.613-6.877,25.617-8.97,30.941M665.262,184c1.146-2.24,2.228-4.515,3.276-6.787l.221.133.048-.18c13.7-.866,33.661-3.289,36.559-19.288,1.113-6.143-1.694-14.459-8.176-16.536-9.561-3.057-13.407,9.832-21.712,10.247a19.131,19.131,0,0,0-2.048-5.465c6.512-2.393,7.5-10.261,16.38-10.756,15.143-.84,26.854,14.638,22.454,28.917C706.533,182.894,682,184.968,665.262,184Z" transform="translate(-497.202 -62.454)" fill="#fff"/></svg>