<svg xmlns="http://www.w3.org/2000/svg" width="140.065" height="16.081" viewBox="0 0 140.065 16.081">
  <g id="title-img-b.svg" transform="translate(-2664 146)">
    <path id="パス_2" data-name="パス 2" d="M6.549,4.592A.229.229,0,0,0,6.737,4.4h4.146a.659.659,0,0,1,.5.218.641.641,0,0,1,.223.435.082.082,0,0,0,0,.041,4.493,4.493,0,0,0-.3,1.288.653.653,0,0,0-.047.271.206.206,0,0,0-.241.176c-.029.288-.076.994-.076,1.611h0a.994.994,0,0,0-.718-.059V6.862c-.265-.306-.653-.441-.859-.87a.541.541,0,0,1,0-.176H8.26a9.458,9.458,0,0,0-1.088.541.094.094,0,0,1-.041,0,.382.382,0,0,1-.176.118l-.129.1v.453a.265.265,0,0,0-.141.188c0,.288,0,.588,0,.853a.2.2,0,0,0-.129,0h0c-.165.124-.147.276-.029.353.059.165.112.335.159.518v1.347c0,.165-.229,1.176.206,1.406V12.4A.194.194,0,0,1,7,12.455a.447.447,0,0,1,.094.329h.053a.482.482,0,0,1-.253.759v1.664a4.429,4.429,0,0,0,.982.247.482.482,0,0,1,.359.394H9.266a.629.629,0,0,1,.712.706.623.623,0,0,1-.712.7H8.425a.349.349,0,0,0-.129-.071A10.845,10.845,0,0,0,6,17.113c-.082.035-.124.071-.141.118-.97-.029-1.911-.106-2.87-.118a.265.265,0,0,0-.218.118.593.593,0,0,1-.494-.676.635.635,0,0,1,.712-.706H4.385a1.229,1.229,0,0,1,.506-.641,2.235,2.235,0,0,1,.365-.124c.053.288.406.276.435-.041-.029-2.241-.2-4.452-.276-6.711V6.385L5.32,6.321H5.2a.494.494,0,0,1-.371-.259A.918.918,0,0,1,4.538,5.8H3.526L3.3,6.044c-.923.112-1.176.476-1.176,1.094v.071a.2.2,0,0,0-.223.053,2.535,2.535,0,0,0-.229.782,1.212,1.212,0,0,0-.223.77,2.688,2.688,0,0,0-.112.329H1.268a.572.572,0,0,0-.347.029L.856,9.085A7.363,7.363,0,0,0,.65,7.144V7.115h0a.047.047,0,0,0,0-.035V4.862c.053.294.394.282.435-.029V4.439A.588.588,0,0,1,1.315,4.4H3.3a.406.406,0,0,1,.235-.318.276.276,0,0,0,.094.176C4.049,4.686,5.949,4.592,6.549,4.592ZM1.056,9.632h0A.5.5,0,0,0,1.1,9.7v.035ZM7.7,14.384c.147.294.459.335.506.512a.206.206,0,0,0,.076.1.359.359,0,0,1-.547.053.388.388,0,0,1-.035-.665Zm.629.047a.717.717,0,0,1-.159-.118l.124.071a.047.047,0,0,0,.041.047ZM10.19,8.973V8.914a2.682,2.682,0,0,0,.5-.071.318.318,0,0,1,.106.124c0,.076-.041.135-.047.229a.659.659,0,0,0-.371-.112.306.306,0,0,0-.182-.106Zm1.206.718Z" transform="translate(2663.35 -148.257)" fill="#3e3a39"/>
    <path id="パス_3" data-name="パス 3" d="M36.027,16.186a6.182,6.182,0,0,0,.876.041h.4c.253-.035.588-.088.718-.353a.588.588,0,0,0,0-.176,2.294,2.294,0,0,1,1.129-.518h.088a.418.418,0,0,1,.282-.371V13.357a.711.711,0,1,1,1.417,0V16.55a.712.712,0,0,1-.706.7H33.057c-.112-.588-.8-.076-1.106,0a.153.153,0,0,1-.065,0H30.622a.623.623,0,0,1-.706-.7.635.635,0,0,1,.706-.706h.812a1.764,1.764,0,0,1,.682-.747V14.074c.118.076.282,0,.318-.223,0-1.517,0-3.023-.059-4.558a4.817,4.817,0,0,0-.253-1.57V6.358a.418.418,0,0,1-.459-.382v.029c0,.035,0-.029-.059-.112h-.9a.635.635,0,0,1-.741-.712.629.629,0,0,1,.712-.706h1.911a.276.276,0,0,0,.171.1h0a7.758,7.758,0,0,0,1.764-.141c.212-.041.388-.171.623-.206h.112a.588.588,0,0,1,.182.247h1.994a.465.465,0,0,1,.765-.353.588.588,0,0,1,.088.353h1.953a.718.718,0,0,1,.706.706V8.122a.711.711,0,1,1-1.417,0V6.846l-.053-.088a.906.906,0,0,0-.4-.482.276.276,0,0,1-.153-.041.512.512,0,0,1-.3-.112.5.5,0,0,1-.182-.241h-.882l-.129-.047A1.112,1.112,0,0,0,36.9,5.5a1.97,1.97,0,0,0-.529,0c-.694-.159-1.323-.212-1.594.065a.241.241,0,0,0,0,.241v.076h-.588a.388.388,0,0,1-.112.112l-.118.288a4.276,4.276,0,0,0-.176.876,9.739,9.739,0,0,0,.053,1.888,1.023,1.023,0,0,1,.482.471V9.6h1.076a2.27,2.27,0,0,1,1.235-1.259.729.729,0,0,1,1.382.312v3.235a.709.709,0,0,1-1.417,0v-.329a.459.459,0,0,1-.447-.294,2.494,2.494,0,0,0-.159-.259H33.933a.306.306,0,0,1,0,.088.447.447,0,0,1-.282.441,1.987,1.987,0,0,0,0,.218.512.512,0,0,1-.112.182v1.006a.647.647,0,0,1,.276-.041,2.864,2.864,0,0,0,.118,1.911.635.635,0,0,1-.118.282c.218.247.529.541.694.747h.3a.242.242,0,0,0,.218.265A9.908,9.908,0,0,1,36.027,16.186ZM33.527,14h.035c0-.035,0,0-.035-.047Zm.588-.335a.171.171,0,0,0,.182,0,.506.506,0,0,1-.159.323,2.63,2.63,0,0,1-.024-.294Zm.065-.423h-.035a.123.123,0,0,1,0-.082ZM36.586,14.5l.035.065a.165.165,0,0,0,.082.053.218.218,0,0,0,.082,0h.047a.953.953,0,0,0,.259.5.353.353,0,0,1-.394-.076.371.371,0,0,1-.118-.512Z" transform="translate(2651.299 -148.23)" fill="#3e3a39"/>
    <path id="パス_4" data-name="パス 4" d="M61.911,14.718a1.3,1.3,0,0,0-.218.523c.035.165.141.253.265.218a.365.365,0,0,0,.212.288.229.229,0,0,0,.3-.076c.035-.029,0-.071.059-.1a.512.512,0,0,1,.159.406.524.524,0,0,1-.029.118l-.035.112h.941a.629.629,0,0,1,.7.706.618.618,0,0,1-.7.7H62.458a.3.3,0,0,0-.165-.141,15.623,15.623,0,0,0-1.576.053,2.17,2.17,0,0,1-.776-.218.223.223,0,0,0-.282.312h-.135a.6.6,0,0,1-.476-.676.629.629,0,0,1,.7-.706h.682l2.117-5.875a4.758,4.758,0,0,0,.788-1.806.306.306,0,0,0-.059-.182l.588-1.6a1.517,1.517,0,0,0-1.029-.194.441.441,0,0,1-.418-.447h-.459a.623.623,0,0,1-.694-.712.718.718,0,0,1,.171-.529.276.276,0,0,0,.176.1h.047a.588.588,0,0,0,.4.312c.429.112.853-.223,1.27-.253a.206.206,0,0,0,.123-.059c.559,0,1.123,0,1.682.041a7.293,7.293,0,0,0,1.588.082h.047a.241.241,0,0,0,.041.059l2.805,7.058a.429.429,0,0,1,.476-.459,1.176,1.176,0,0,0-.024.829.359.359,0,0,1-.223-.1.6.6,0,0,1-.1-.076l1.506,3.764H71.8a.635.635,0,0,1,.712.706.623.623,0,0,1-.712.7H70.292a.212.212,0,0,0-.253-.212c-.523.053-1.406.212-1.494.212h-.529a.618.618,0,0,1-.706-.7.629.629,0,0,1,.706-.706h0l-.047-.035a.441.441,0,0,1-.194-.329c.312,0,.588-.029.712-.365l.041.035a.523.523,0,0,1-.082.694h.7a.553.553,0,0,1,.1-.3,1.664,1.664,0,0,1,.241-.253l-.723-1.859a.253.253,0,0,1-.141,0,.735.735,0,0,1-.229-.059.547.547,0,0,1-.247-.241H62.922l-.129.341h0l-.065-.041h-.041a.218.218,0,0,0-.182,0l-.065.065h0c0,.035-.029.053-.029.071a1.176,1.176,0,0,1-.265.447.218.218,0,0,0-.235.2Zm3.576-7.552a.406.406,0,0,0-.053.106v.035a1.1,1.1,0,0,0-.035.141,1.04,1.04,0,0,1,0-.141.112.112,0,0,0-.218-.041.235.235,0,0,0-.206.106h0a9.451,9.451,0,0,0-.923,2.288,1.693,1.693,0,0,0-.176.394c-.053.129-.553.988-.435,1.353.259.865,2.3.588,2.905.523h.2a.935.935,0,0,0,.794-.171,1.388,1.388,0,0,0,.376.235.212.212,0,0,0,.194-.359,2.617,2.617,0,0,1-.465-.553c-.088-.176-.271-.941-.323-1.1V9.954c-.147-.87-.588-1.641-.67-2.517a.224.224,0,0,0-.429,0,2.188,2.188,0,0,0-.665-.541c-.171-.041-.229.124-.088.2Zm-1.065,3.529c0,.029-.041.029-.076.059a.212.212,0,0,0,.047-.082Zm.212-1.27a.247.247,0,0,1,0,.082.965.965,0,0,0-.124.171,2,2,0,0,1,.118-.276Zm.747,1.323a.088.088,0,0,1,0,.035v.047l-.076-.035v-.076h.035Zm2.558,1.341Z" transform="translate(2639.213 -148.591)" fill="#3e3a39"/>
    <path id="パス_5" data-name="パス 5" d="M91.793,9.345a.218.218,0,0,0,.1-.4h.618a.235.235,0,0,0,.182-.294h.935V8.439a.231.231,0,0,0,.235-.247,6.947,6.947,0,0,0-.071-.87.212.212,0,0,0-.171-.176V6.063a.623.623,0,0,1,.682-.706.2.2,0,0,0,.223,0,.653.653,0,0,1,.271.118v.141a.035.035,0,0,0,0,.029v.088a3.965,3.965,0,0,0,0,1.247.218.218,0,0,0-.171.194c0,.253-.071.588.241.653a.276.276,0,0,0,.153,0V8.61a.218.218,0,0,0,.071.282.482.482,0,0,0,.253.153A.335.335,0,0,0,95.539,9a.206.206,0,0,0,.059-.076l.212.188a.288.288,0,0,0,.212,0,.294.294,0,0,0,.147-.171c-.071-.118,0-.282.218-.312h1.729a.212.212,0,0,1,.159.294h.318a.224.224,0,0,0,.176-.294h1.094a.635.635,0,0,1,.706.712.629.629,0,0,1-.706.706H99.58a.753.753,0,0,1-.112-.065H99.3a2.182,2.182,0,0,0-.553-.124.247.247,0,0,0-.253.206h-.259a.218.218,0,0,0-.129-.347H96.669c-.2.035-.282.182-.223.306h-.782a.294.294,0,0,0-.176.065h-.241a4.084,4.084,0,0,1-.235.394v.912c-.106,0-.306.212-.371.588a4.94,4.94,0,0,0,.188,1.488.253.253,0,0,0,.182.218v.447a1.478,1.478,0,0,1,0-.259.218.218,0,0,0-.435,0c.035.523.129.77.141,1.076a.423.423,0,0,0,.071.171v.765c.035.2.206.271.323.194a2.8,2.8,0,0,0,.153.482c-.165-.053-.318.118-.223.323a1.288,1.288,0,0,0,.588.335l.035.082c.2.465.929.623,1.541.535h0c0,.076.076.124.2.141l.212-.041a2.353,2.353,0,0,0,1.364-.265c.165.4,1.406-.218,1.629-.394a.218.218,0,0,0,0-.323,1.129,1.129,0,0,1,.906-.412.224.224,0,0,0,.194-.259.5.5,0,0,1,.124.1.759.759,0,0,1,.206.518.67.67,0,0,1-.329.588l-1.323.682a8,8,0,0,1-3.141.688,4.746,4.746,0,0,1-1.764-.288c.253-.053.235-.341,0-.423h-.494a.224.224,0,0,0-.176.065,3.27,3.27,0,0,1-1.217-2.505.218.218,0,0,0,.188-.306.354.354,0,0,1-.065-.129.67.67,0,0,0,.088-.129c.035-.688.282-2.135-.171-2.835V10.863a.282.282,0,0,0-.094-.271c-.212-.065-.229-.335-.423-.423a1.493,1.493,0,0,1,0-.306.753.753,0,0,1-.229,0,.218.218,0,0,0-.412.129.3.3,0,0,0,0,.071H91.387a.623.623,0,0,1-.712-.706V9.263H90.7a.682.682,0,0,1,.323-.153h.035c0,.1.082.188.224.218a.371.371,0,0,0,.118,0,.335.335,0,0,0,.171.071Zm1.764.706a.435.435,0,0,0,.029.135l.041.141v-.276Z" transform="translate(2626.141 -148.782)" fill="#3e3a39"/>
    <path id="パス_6" data-name="パス 6" d="M128.16,18.092h.835a.242.242,0,0,0,.218.265c.365,0,.741.065,1.106.076a.777.777,0,0,1,.071.365.623.623,0,0,1-.712.7h-1.612c.118-.118.065-.282-.118-.353h-.288c-.182,0-.282.129-.247.247a2.511,2.511,0,0,0-1.453.029l-.124.071H124.39a6.087,6.087,0,0,0-1.535-.141.265.265,0,0,0-.229.141h-.453a.629.629,0,0,1-.706-.7,1.223,1.223,0,0,1,.047-.323.212.212,0,0,0,.112.035,1.176,1.176,0,0,0,.853-.353l.041-.065h1.459a.153.153,0,0,1-.035-.053c-.053-.124-.065-.159,0-.276a.616.616,0,0,1,.471-.194.735.735,0,0,0,.071-.188c0-1.176.094-2.353.165-3.529-.076,0-.135-.071-.165-.171-.029-.229-.047-.2-.106-.288-.1-.253.118-.412.306-.282v-.071c-.076-.223-.147-.441-.224-.694h-.071V11.4a.206.206,0,0,1-.182-.159.8.8,0,0,0-.218-.212.206.206,0,0,1-.359-.159H122.6a.623.623,0,0,1-.712-.694.629.629,0,0,1,.712-.706.2.2,0,0,0,.129.271c.976.347.806,0,1.682-.059.129-.029.2-.088.2-.212h.488a.723.723,0,0,1,.712.706v.1a.223.223,0,0,1,.247.1,1.312,1.312,0,0,1,.147.482,2.046,2.046,0,0,1,.406-.218.588.588,0,0,0,.165-.106.206.206,0,0,1,.347.071A5.787,5.787,0,0,1,130.5,9.529a2.788,2.788,0,0,1,1.588.447.194.194,0,0,0,.082.153.19.19,0,0,0-.112.312.212.212,0,0,0,.382-.165l.029.035a.706.706,0,0,1,.206.494.747.747,0,0,1-.741.741.682.682,0,0,1-.5-.229,1.388,1.388,0,0,0-.747-.323.235.235,0,0,0-.165-.288,4.005,4.005,0,0,0-.965.088,2.685,2.685,0,0,0-1.923.5,2.179,2.179,0,0,0-1.429,1.935c-.171.082-.2.241-.094.353-.106.124-.212.259-.312.4v.865h-.053a2.076,2.076,0,0,0-.2.341c0,.423,0,.835.029,1.247.076.206.147.406.223.623v.482a2.293,2.293,0,0,1,.588.553h.682a1.223,1.223,0,0,0,.947.341.223.223,0,0,0,.141-.341Zm-2.353-6.381v.053a.158.158,0,0,1,.029-.041s-.029,0-.035-.012Zm.371-.329.065-.053a.088.088,0,0,1-.053,0,.17.17,0,0,0-.018.053Zm.553,1.47a2.188,2.188,0,0,1,.294-.635c-.047.147-.088.288-.124.441Zm1.112-1.176h0s-.012.006-.012.012Z" transform="translate(2613.413 -150.477)" fill="#3e3a39"/>
    <path id="パス_7" data-name="パス 7" d="M157.022,14.143v-.929c.059-.953.135-1.882.176-2.835,0-.359.094-.77-.176-.917V8.485a.241.241,0,0,1-.159-.041s-.035,0-.047-.047c-.118.035-.235-.035-.265-.206a4.83,4.83,0,0,0-.035-.806h-.276a.288.288,0,0,0-.159-.124c-.294,0-.553.106-.818.124h-.747a.618.618,0,0,1-.706-.694.623.623,0,0,1,.371-.653c0,.118.059.194.229.223.359,0,1.541.165,1.841-.182l.047-.094h1.423a.712.712,0,0,1,.7.706V7.867a.218.218,0,0,0-.3.176c0,.465-.065.894-.071,1.359.035.253.265.282.371.141v1.835a.223.223,0,0,0-.3.176,12.087,12.087,0,0,0,.071,2.129h0a.206.206,0,0,0,.218.159v.723h1.958c.229.318.976.135,1.476,0h.418a.635.635,0,0,1,.706.706.623.623,0,0,1-.706.7H159.91c-.382-.082-.471-.259-.865-.294a19.733,19.733,0,0,0-2.464.135c-.965.076-1.941.129-2.9.159h-.429a.623.623,0,0,1-.706-.7.635.635,0,0,1,.706-.706h.247a.229.229,0,0,0,.088.153c.441.265.835,0,1.288-.029a.253.253,0,0,0,.171-.124H156.4a1.176,1.176,0,0,1,.588-.453Zm0-6.087V7.72l-.035-.047V8.05Zm1.035-5.181c.035.247.265.282.371.135v.482a.7.7,0,1,1-1.406,0V1.674a.623.623,0,0,1,.706-.682.588.588,0,0,1,.7.635.229.229,0,0,0-.159.182C158.239,2.168,158.1,2.492,158.057,2.874Z" transform="translate(2600.568 -146.981)" fill="#3e3a39"/>
    <path id="パス_8" data-name="パス 8" d="M183.537,8.927a6.84,6.84,0,0,0-.306,2.106v.029a.436.436,0,0,1,.1.194,2.493,2.493,0,0,0,.171.7,2.706,2.706,0,0,0,.159,1.017,4.964,4.964,0,0,0,1.294,2.129v.088a3.186,3.186,0,0,0,.376.288,1.305,1.305,0,0,0,.171.165.335.335,0,0,0,.141,0,4.252,4.252,0,0,0,2.035.471,8.368,8.368,0,0,0,.965-.053.541.541,0,0,1,.206-.341,3,3,0,0,1,1.176-.553.482.482,0,0,1,.423.176c.276-.171.629-.4,1.035-.682a.706.706,0,0,1,1.112.588.67.67,0,0,1-.329.588,14.63,14.63,0,0,1-2.07,1.259,6.47,6.47,0,0,1-2.541.435,5.293,5.293,0,0,1-4.293-1.964,6.323,6.323,0,0,1-1.176-1.964.488.488,0,0,1-.306-.1.406.406,0,0,1,.076-.723,8.571,8.571,0,0,1-.176-1.764A7.423,7.423,0,0,1,183.3,6.356a5.2,5.2,0,0,1,4.329-2.141,5.293,5.293,0,0,1,2.353.465.494.494,0,0,1,.465-.341h.647l.488-.124a.623.623,0,0,1,.706.7h0a5.115,5.115,0,0,0-.241,1.294,25.847,25.847,0,0,0-.418,2.811h-.041c-.471,0-.706-.247-.706-.735a2.605,2.605,0,0,0-.235-1.176.347.347,0,0,1-.129-.082.365.365,0,0,1-.188-.418,1.687,1.687,0,0,0-.235-.247,3.529,3.529,0,0,0-2.435-.765,3.764,3.764,0,0,0-2.382.841l-.088.118a3.176,3.176,0,0,0-1.176,2.053A.447.447,0,0,1,183.537,8.927Zm.553,4.117a.427.427,0,0,1-.029-.082l.029.029Zm4.652-6.081a1.958,1.958,0,0,0-.441,0,.224.224,0,0,0-.235.265c-.435-.347.071-.994.588-.641a.547.547,0,0,1,.088.359Z" transform="translate(2588.519 -148.311)" fill="#3e3a39"/>
    <path id="パス_9" data-name="パス 9" d="M221.826,5.739a.488.488,0,0,1-.112.312,7.064,7.064,0,0,1,.453.659,8.235,8.235,0,0,1,1.059,4.229,8.075,8.075,0,0,1-1.059,4.182,4.858,4.858,0,0,1-4.488,2.5,5.029,5.029,0,0,1-4.558-2.458A8.045,8.045,0,0,1,212,10.844a7.8,7.8,0,0,1,1.117-4.235,5.528,5.528,0,0,1,8-1.176.435.435,0,0,1,.718.253Zm-.712,7.84a8.123,8.123,0,0,0,.388-1.717c0-.247-.294-.359-.412-.118v.071a.588.588,0,0,0-.076.206,5.344,5.344,0,0,0,.053-.629v-.106l-.035-.059a.289.289,0,0,0-.071-.076h-.171a11.693,11.693,0,0,0,.129-1.329.459.459,0,0,1,.288-.371c-.041-.471-.065-.888-.065-1.276a.359.359,0,0,1,.082-.223,4.257,4.257,0,0,0-.247-.471,3.576,3.576,0,0,0-3.288-1.823,3.741,3.741,0,0,0-3.352,1.764,6.323,6.323,0,0,0-.9,3.482,6.34,6.34,0,0,0,.923,3.529,2.793,2.793,0,0,0,.165.259.482.482,0,0,1,.453.365v.159a3.164,3.164,0,0,0,1.117.729.906.906,0,0,1,.229-.053h.712a5.418,5.418,0,0,0,1-.112c-.065.165,0,.265.2.3a2.941,2.941,0,0,0,1.617-.588.471.471,0,0,0,.059-.153,1.115,1.115,0,0,0,.171-.088c.476-.094.618-.494.671-.959a1.53,1.53,0,0,0,.365-.588v-.029ZM217,13.973a.717.717,0,0,1-.153,0c-.282,0-.323.371,0,.429h.071a.8.8,0,0,1,.147.041.371.371,0,0,1-.588.165c-.465-.353,0-1.012.588-.67-.094.024-.094.024-.076.029Zm5.293,2.394a3.878,3.878,0,0,1-.459.653.423.423,0,0,1,.453-.653Zm.153.635a2.111,2.111,0,0,1-.194.206c-.088.065-.041,0-.071,0l.123-.165a.194.194,0,0,0,.1-.041Z" transform="translate(2575.979 -148.317)" fill="#3e3a39"/>
    <path id="パス_10" data-name="パス 10" d="M237.282,25.149a1.223,1.223,0,0,1-2.082-.876,1.214,1.214,0,0,1,1.223-1.223,1.229,1.229,0,0,1,.859,2.1Zm-1.576-1.588a1.017,1.017,0,0,0,0,1.429,1.006,1.006,0,0,0,1.429,0,1.015,1.015,0,1,0-1.435-1.435Zm.182,1.388V23.609h.659a.653.653,0,0,1,.265.071.341.341,0,0,1,.182.323.294.294,0,0,1-.094.247.441.441,0,0,1-.235.088.452.452,0,0,1,.194.076.37.37,0,0,1,.118.306v.124a.325.325,0,0,0,0,.041v.076h-.341a1,1,0,0,1,0-.188.638.638,0,0,0,0-.165.165.165,0,0,0-.1-.1.4.4,0,0,0-.123,0h-.153v.482Zm.647-1.088a.588.588,0,0,0-.206,0h-.071v.394h.135a.329.329,0,0,0,.194-.047.182.182,0,0,0,.071-.159.153.153,0,0,0-.124-.188Z" transform="translate(2566.422 -156.102)" fill="#3e3a39"/>
  </g>
</svg>
