<svg xmlns="http://www.w3.org/2000/svg" width="40.566" height="20.595" viewBox="0 0 40.566 20.595">
  <g id="voice-next" transform="translate(-4182.5 216.595) rotate(-90)" style="mix-blend-mode: multiply;isolation: isolate">
    <path id="線_11" data-name="線 11" d="M0,40a.5.5,0,0,1-.5-.5V0A.5.5,0,0,1,0-.5.5.5,0,0,1,.5,0V39.5A.5.5,0,0,1,0,40Z" transform="translate(206.5 4183)" fill="#3e3a39"/>
    <path id="パス_363" data-name="パス 363" d="M2726.7,4247.045l-.236-.123-9.992-5.218a.5.5,0,0,1,.463-.887l9.756,5.095,9.369-5.091a.5.5,0,1,1,.478.879Z" transform="translate(-2520.208 -23.979)" fill="#3e3a39"/>
  </g>
</svg>
